<?xml version="1.0"?>
<svg xmlns="http://www.w3.org/2000/svg" version="1.1" width="950" height="560">

    <text x="50" y="20" style="font-size:14px;color:black;">Planche 1</text>
    <rect width="250" height="500" x="50" y="30" style="fill:lightblue; stroke:black; stroke-width:2px;"/>
    <rect width="50" height="50" x="50" y="30" style="fill:yellow; stroke:black; stroke-width:2px;"/>
    <text x="70" y="55" style="font-size:14px;color:black;">2</text>
    <rect width="50" height="50" x="50" y="80" style="fill:yellow; stroke:black; stroke-width:2px;"/>
    <text x="70" y="105" style="font-size:14px;color:black;">2</text>
    <rect width="50" height="50" x="50" y="130" style="fill:yellow; stroke:black; stroke-width:2px;"/>
    <text x="70" y="155" style="font-size:14px;color:black;">2</text>
    <rect width="50" height="50" x="50" y="180" style="fill:yellow; stroke:black; stroke-width:2px;"/>
    <text x="70" y="205" style="font-size:14px;color:black;">2</text>
    <rect width="50" height="50" x="50" y="230" style="fill:yellow; stroke:black; stroke-width:2px;"/>
    <text x="70" y="255" style="font-size:14px;color:black;">2</text>
    <rect width="15" height="50" x="50" y="280" style="fill:yellow; stroke:black; stroke-width:2px;"/>
    <text x="52" y="305" style="font-size:14px;color:black;">3</text>
    <rect width="15" height="50" x="50" y="330" style="fill:yellow; stroke:black; stroke-width:2px;"/>
    <text x="52" y="355" style="font-size:14px;color:black;">3</text>
    <rect width="15" height="50" x="50" y="380" style="fill:yellow; stroke:black; stroke-width:2px;"/>
    <text x="52" y="405" style="font-size:14px;color:black;">3</text>
    <rect width="15" height="50" x="50" y="430" style="fill:yellow; stroke:black; stroke-width:2px;"/>
    <text x="52" y="455" style="font-size:14px;color:black;">3</text>
    <rect width="15" height="50" x="50" y="480" style="fill:yellow; stroke:black; stroke-width:2px;"/>
    <text x="52" y="505" style="font-size:14px;color:black;">3</text>
    <text x="350" y="20" style="font-size:14px;color:black;">Planche 2</text>
    <rect width="250" height="500" x="350" y="30" style="fill:lightblue; stroke:black; stroke-width:2px;"/>
    <rect width="15" height="50" x="350" y="30" style="fill:yellow; stroke:black; stroke-width:2px;"/>
    <text x="352" y="55" style="font-size:14px;color:black;">3</text>
    <rect width="15" height="50" x="350" y="80" style="fill:yellow; stroke:black; stroke-width:2px;"/>
    <text x="352" y="105" style="font-size:14px;color:black;">3</text>
    <rect width="15" height="50" x="350" y="130" style="fill:yellow; stroke:black; stroke-width:2px;"/>
    <text x="352" y="155" style="font-size:14px;color:black;">3</text>
    <rect width="15" height="50" x="350" y="180" style="fill:yellow; stroke:black; stroke-width:2px;"/>
    <text x="352" y="205" style="font-size:14px;color:black;">3</text>
    <rect width="15" height="50" x="350" y="230" style="fill:yellow; stroke:black; stroke-width:2px;"/>
    <text x="352" y="255" style="font-size:14px;color:black;">3</text>
    <rect width="20" height="30" x="350" y="280" style="fill:yellow; stroke:black; stroke-width:2px;"/>
    <text x="355" y="295" style="font-size:14px;color:black;">1</text>
    <rect width="20" height="30" x="350" y="310" style="fill:yellow; stroke:black; stroke-width:2px;"/>
    <text x="355" y="325" style="font-size:14px;color:black;">1</text>
    <rect width="20" height="30" x="350" y="340" style="fill:yellow; stroke:black; stroke-width:2px;"/>
    <text x="355" y="355" style="font-size:14px;color:black;">1</text>
    <rect width="20" height="30" x="350" y="370" style="fill:yellow; stroke:black; stroke-width:2px;"/>
    <text x="355" y="385" style="font-size:14px;color:black;">1</text>
    <rect width="20" height="30" x="350" y="400" style="fill:yellow; stroke:black; stroke-width:2px;"/>
    <text x="355" y="415" style="font-size:14px;color:black;">1</text>
    <rect width="20" height="30" x="350" y="430" style="fill:yellow; stroke:black; stroke-width:2px;"/>
    <text x="355" y="445" style="font-size:14px;color:black;">1</text>
    <rect width="20" height="30" x="350" y="460" style="fill:yellow; stroke:black; stroke-width:2px;"/>
    <text x="355" y="475" style="font-size:14px;color:black;">1</text>
    <rect width="20" height="30" x="350" y="490" style="fill:yellow; stroke:black; stroke-width:2px;"/>
    <text x="355" y="505" style="font-size:14px;color:black;">1</text>
    <text x="650" y="20" style="font-size:14px;color:black;">Planche 3</text>
    <rect width="250" height="500" x="650" y="30" style="fill:lightblue; stroke:black; stroke-width:2px;"/>
    <rect width="20" height="30" x="650" y="30" style="fill:yellow; stroke:black; stroke-width:2px;"/>
    <text x="655" y="45" style="font-size:14px;color:black;">1</text>
    <rect width="20" height="30" x="650" y="60" style="fill:yellow; stroke:black; stroke-width:2px;"/>
    <text x="655" y="75" style="font-size:14px;color:black;">1</text>
    <rect width="20" height="30" x="650" y="90" style="fill:yellow; stroke:black; stroke-width:2px;"/>
    <text x="655" y="105" style="font-size:14px;color:black;">1</text>
    <rect width="20" height="30" x="650" y="120" style="fill:yellow; stroke:black; stroke-width:2px;"/>
    <text x="655" y="135" style="font-size:14px;color:black;">1</text>
    <rect width="20" height="30" x="650" y="150" style="fill:yellow; stroke:black; stroke-width:2px;"/>
    <text x="655" y="165" style="font-size:14px;color:black;">1</text>
    <rect width="20" height="30" x="650" y="180" style="fill:yellow; stroke:black; stroke-width:2px;"/>
    <text x="655" y="195" style="font-size:14px;color:black;">1</text>
    <rect width="20" height="30" x="650" y="210" style="fill:yellow; stroke:black; stroke-width:2px;"/>
    <text x="655" y="225" style="font-size:14px;color:black;">1</text>
    
</svg>
