<?xml version="1.0"?>
<svg xmlns="http://www.w3.org/2000/svg" version="1.1" width="350" height="560">

    <text x="50" y="20" style="font-size:14px;color:black;">Planche 1</text>
    <rect width="250" height="500" x="50" y="30" style="fill:lightblue; stroke:black; stroke-width:2px;"/>
    <rect width="50" height="50" x="50" y="30" style="fill:yellow; stroke:black; stroke-width:2px;"/>
    <text x="70" y="55" style="font-size:14px;color:black;">2</text>
    <rect width="50" height="50" x="100" y="30" style="fill:yellow; stroke:black; stroke-width:2px;"/>
    <text x="120" y="55" style="font-size:14px;color:black;">2</text>
    <rect width="50" height="50" x="150" y="30" style="fill:yellow; stroke:black; stroke-width:2px;"/>
    <text x="170" y="55" style="font-size:14px;color:black;">2</text>
    <rect width="50" height="50" x="200" y="30" style="fill:yellow; stroke:black; stroke-width:2px;"/>
    <text x="220" y="55" style="font-size:14px;color:black;">2</text>
    <rect width="50" height="50" x="50" y="80" style="fill:yellow; stroke:black; stroke-width:2px;"/>
    <text x="70" y="105" style="font-size:14px;color:black;">2</text>
    <rect width="20" height="30" x="250" y="30" style="fill:yellow; stroke:black; stroke-width:2px;"/>
    <text x="255" y="45" style="font-size:14px;color:black;">1</text>
    <rect width="20" height="30" x="270" y="30" style="fill:yellow; stroke:black; stroke-width:2px;"/>
    <text x="275" y="45" style="font-size:14px;color:black;">1</text>
    <rect width="20" height="30" x="100" y="80" style="fill:yellow; stroke:black; stroke-width:2px;"/>
    <text x="105" y="95" style="font-size:14px;color:black;">1</text>
    <rect width="20" height="30" x="120" y="80" style="fill:yellow; stroke:black; stroke-width:2px;"/>
    <text x="125" y="95" style="font-size:14px;color:black;">1</text>
    <rect width="20" height="30" x="140" y="80" style="fill:yellow; stroke:black; stroke-width:2px;"/>
    <text x="145" y="95" style="font-size:14px;color:black;">1</text>
    <rect width="20" height="30" x="160" y="80" style="fill:yellow; stroke:black; stroke-width:2px;"/>
    <text x="165" y="95" style="font-size:14px;color:black;">1</text>
    <rect width="20" height="30" x="180" y="80" style="fill:yellow; stroke:black; stroke-width:2px;"/>
    <text x="185" y="95" style="font-size:14px;color:black;">1</text>
    <rect width="20" height="30" x="200" y="80" style="fill:yellow; stroke:black; stroke-width:2px;"/>
    <text x="205" y="95" style="font-size:14px;color:black;">1</text>
    <rect width="20" height="30" x="220" y="80" style="fill:yellow; stroke:black; stroke-width:2px;"/>
    <text x="225" y="95" style="font-size:14px;color:black;">1</text>
    <rect width="20" height="30" x="240" y="80" style="fill:yellow; stroke:black; stroke-width:2px;"/>
    <text x="245" y="95" style="font-size:14px;color:black;">1</text>
    <rect width="20" height="30" x="260" y="80" style="fill:yellow; stroke:black; stroke-width:2px;"/>
    <text x="265" y="95" style="font-size:14px;color:black;">1</text>
    <rect width="20" height="30" x="50" y="130" style="fill:yellow; stroke:black; stroke-width:2px;"/>
    <text x="55" y="145" style="font-size:14px;color:black;">1</text>
    <rect width="20" height="30" x="70" y="130" style="fill:yellow; stroke:black; stroke-width:2px;"/>
    <text x="75" y="145" style="font-size:14px;color:black;">1</text>
    <rect width="20" height="30" x="90" y="130" style="fill:yellow; stroke:black; stroke-width:2px;"/>
    <text x="95" y="145" style="font-size:14px;color:black;">1</text>
    <rect width="20" height="30" x="110" y="130" style="fill:yellow; stroke:black; stroke-width:2px;"/>
    <text x="115" y="145" style="font-size:14px;color:black;">1</text>
    <rect width="15" height="50" x="280" y="80" style="fill:yellow; stroke:black; stroke-width:2px;"/>
    <text x="282" y="105" style="font-size:14px;color:black;">3</text>
    <rect width="15" height="50" x="50" y="160" style="fill:yellow; stroke:black; stroke-width:2px;"/>
    <text x="52" y="185" style="font-size:14px;color:black;">3</text>
    <rect width="15" height="50" x="65" y="160" style="fill:yellow; stroke:black; stroke-width:2px;"/>
    <text x="67" y="185" style="font-size:14px;color:black;">3</text>
    <rect width="15" height="50" x="80" y="160" style="fill:yellow; stroke:black; stroke-width:2px;"/>
    <text x="82" y="185" style="font-size:14px;color:black;">3</text>
    <rect width="15" height="50" x="95" y="160" style="fill:yellow; stroke:black; stroke-width:2px;"/>
    <text x="97" y="185" style="font-size:14px;color:black;">3</text>
    <rect width="15" height="50" x="110" y="160" style="fill:yellow; stroke:black; stroke-width:2px;"/>
    <text x="112" y="185" style="font-size:14px;color:black;">3</text>
    <rect width="15" height="50" x="125" y="160" style="fill:yellow; stroke:black; stroke-width:2px;"/>
    <text x="127" y="185" style="font-size:14px;color:black;">3</text>
    <rect width="15" height="50" x="140" y="160" style="fill:yellow; stroke:black; stroke-width:2px;"/>
    <text x="142" y="185" style="font-size:14px;color:black;">3</text>
    <rect width="15" height="50" x="155" y="160" style="fill:yellow; stroke:black; stroke-width:2px;"/>
    <text x="157" y="185" style="font-size:14px;color:black;">3</text>
    <rect width="15" height="50" x="170" y="160" style="fill:yellow; stroke:black; stroke-width:2px;"/>
    <text x="172" y="185" style="font-size:14px;color:black;">3</text>
    
</svg>
