<?xml version="1.0"?>
<svg xmlns="http://www.w3.org/2000/svg" version="1.1"
><text x="30" y="20" style="font-size:14px;color:black;">Planche 1</text>
<rect width="200" height="400" x="30" y="30" style="fill:lightblue; stroke:black; stroke-width:2px;"></rect>
<rect width="100" height="200" x="30" y="30" style="fill:yellow; stroke:black; stroke-width:2px;"></rect>
<text x="75" y="130" style="font-size:14px;color:black;">1</text>
<rect width="100" height="200" x="30" y="230" style="fill:yellow; stroke:black; stroke-width:2px;"></rect>
<text x="75" y="330" style="font-size:14px;color:black;">1</text>
<text x="280" y="20" style="font-size:14px;color:black;">Planche 2</text>
<rect width="200" height="400" x="280" y="30" style="fill:lightblue; stroke:black; stroke-width:2px;"></rect>
<rect width="100" height="200" x="280" y="30" style="fill:yellow; stroke:black; stroke-width:2px;"></rect>
<text x="325" y="130" style="font-size:14px;color:black;">1</text>
<text x="530" y="20" style="font-size:14px;color:black;">Planche 3</text>
<rect width="200" height="400" x="530" y="30" style="fill:lightblue; stroke:black; stroke-width:2px;"></rect>
<rect width="150" height="250" x="530" y="30" style="fill:yellow; stroke:black; stroke-width:2px;"></rect>
<text x="600" y="155" style="font-size:14px;color:black;">3</text>
<text x="780" y="20" style="font-size:14px;color:black;">Planche 4</text>
<rect width="200" height="400" x="780" y="30" style="fill:lightblue; stroke:black; stroke-width:2px;"></rect>
<rect width="150" height="250" x="780" y="30" style="fill:yellow; stroke:black; stroke-width:2px;"></rect>
<text x="850" y="155" style="font-size:14px;color:black;">3</text>
<text x="1030" y="20" style="font-size:14px;color:black;">Planche 5</text>
<rect width="200" height="400" x="1030" y="30" style="fill:lightblue; stroke:black; stroke-width:2px;"></rect>
<rect width="150" height="250" x="1030" y="30" style="fill:yellow; stroke:black; stroke-width:2px;"></rect>
<text x="1100" y="155" style="font-size:14px;color:black;">3</text>
<text x="1280" y="20" style="font-size:14px;color:black;">Planche 6</text>
<rect width="200" height="400" x="1280" y="30" style="fill:lightblue; stroke:black; stroke-width:2px;"></rect>
<rect width="150" height="250" x="1280" y="30" style="fill:yellow; stroke:black; stroke-width:2px;"></rect>
<text x="1350" y="155" style="font-size:14px;color:black;">2</text>
<text x="1530" y="20" style="font-size:14px;color:black;">Planche 7</text>
<rect width="200" height="400" x="1530" y="30" style="fill:lightblue; stroke:black; stroke-width:2px;"></rect>
<rect width="150" height="250" x="1530" y="30" style="fill:yellow; stroke:black; stroke-width:2px;"></rect>
<text x="1600" y="155" style="font-size:14px;color:black;">2</text>
<text x="1780" y="20" style="font-size:14px;color:black;">Planche 8</text>
<rect width="200" height="400" x="1780" y="30" style="fill:lightblue; stroke:black; stroke-width:2px;"></rect>
<rect width="150" height="250" x="1780" y="30" style="fill:yellow; stroke:black; stroke-width:2px;"></rect>
<text x="1850" y="155" style="font-size:14px;color:black;">2</text>
</svg>
