<?xml version="1.0"?>
<svg xmlns="http://www.w3.org/2000/svg" version="1.1" width="1175" height="90">

    <text x="50" y="20" style="font-size:14px;color:black;">Planche 1</text>
    <rect width="25" height="30" x="50" y="30" style="fill:lightblue; stroke:black; stroke-width:2px;"/>
    <rect width="20" height="30" x="50" y="30" style="fill:yellow; stroke:black; stroke-width:2px;"/>
    <text x="55" y="45" style="font-size:14px;color:black;">1</text>
    <text x="125" y="20" style="font-size:14px;color:black;">Planche 2</text>
    <rect width="25" height="30" x="125" y="30" style="fill:lightblue; stroke:black; stroke-width:2px;"/>
    <rect width="20" height="30" x="125" y="30" style="fill:yellow; stroke:black; stroke-width:2px;"/>
    <text x="130" y="45" style="font-size:14px;color:black;">1</text>
    <text x="200" y="20" style="font-size:14px;color:black;">Planche 3</text>
    <rect width="25" height="30" x="200" y="30" style="fill:lightblue; stroke:black; stroke-width:2px;"/>
    <rect width="20" height="30" x="200" y="30" style="fill:yellow; stroke:black; stroke-width:2px;"/>
    <text x="205" y="45" style="font-size:14px;color:black;">1</text>
    <text x="275" y="20" style="font-size:14px;color:black;">Planche 4</text>
    <rect width="25" height="30" x="275" y="30" style="fill:lightblue; stroke:black; stroke-width:2px;"/>
    <rect width="20" height="30" x="275" y="30" style="fill:yellow; stroke:black; stroke-width:2px;"/>
    <text x="280" y="45" style="font-size:14px;color:black;">1</text>
    <text x="350" y="20" style="font-size:14px;color:black;">Planche 5</text>
    <rect width="25" height="30" x="350" y="30" style="fill:lightblue; stroke:black; stroke-width:2px;"/>
    <rect width="20" height="30" x="350" y="30" style="fill:yellow; stroke:black; stroke-width:2px;"/>
    <text x="355" y="45" style="font-size:14px;color:black;">1</text>
    <text x="425" y="20" style="font-size:14px;color:black;">Planche 6</text>
    <rect width="25" height="30" x="425" y="30" style="fill:lightblue; stroke:black; stroke-width:2px;"/>
    <rect width="20" height="30" x="425" y="30" style="fill:yellow; stroke:black; stroke-width:2px;"/>
    <text x="430" y="45" style="font-size:14px;color:black;">1</text>
    <text x="500" y="20" style="font-size:14px;color:black;">Planche 7</text>
    <rect width="25" height="30" x="500" y="30" style="fill:lightblue; stroke:black; stroke-width:2px;"/>
    <rect width="20" height="30" x="500" y="30" style="fill:yellow; stroke:black; stroke-width:2px;"/>
    <text x="505" y="45" style="font-size:14px;color:black;">1</text>
    <text x="575" y="20" style="font-size:14px;color:black;">Planche 8</text>
    <rect width="25" height="30" x="575" y="30" style="fill:lightblue; stroke:black; stroke-width:2px;"/>
    <rect width="20" height="30" x="575" y="30" style="fill:yellow; stroke:black; stroke-width:2px;"/>
    <text x="580" y="45" style="font-size:14px;color:black;">1</text>
    <text x="650" y="20" style="font-size:14px;color:black;">Planche 9</text>
    <rect width="25" height="30" x="650" y="30" style="fill:lightblue; stroke:black; stroke-width:2px;"/>
    <rect width="20" height="30" x="650" y="30" style="fill:yellow; stroke:black; stroke-width:2px;"/>
    <text x="655" y="45" style="font-size:14px;color:black;">1</text>
    <text x="725" y="20" style="font-size:14px;color:black;">Planche 10</text>
    <rect width="25" height="30" x="725" y="30" style="fill:lightblue; stroke:black; stroke-width:2px;"/>
    <rect width="20" height="30" x="725" y="30" style="fill:yellow; stroke:black; stroke-width:2px;"/>
    <text x="730" y="45" style="font-size:14px;color:black;">1</text>
    <text x="800" y="20" style="font-size:14px;color:black;">Planche 11</text>
    <rect width="25" height="30" x="800" y="30" style="fill:lightblue; stroke:black; stroke-width:2px;"/>
    <rect width="20" height="30" x="800" y="30" style="fill:yellow; stroke:black; stroke-width:2px;"/>
    <text x="805" y="45" style="font-size:14px;color:black;">1</text>
    <text x="875" y="20" style="font-size:14px;color:black;">Planche 12</text>
    <rect width="25" height="30" x="875" y="30" style="fill:lightblue; stroke:black; stroke-width:2px;"/>
    <rect width="20" height="30" x="875" y="30" style="fill:yellow; stroke:black; stroke-width:2px;"/>
    <text x="880" y="45" style="font-size:14px;color:black;">1</text>
    <text x="950" y="20" style="font-size:14px;color:black;">Planche 13</text>
    <rect width="25" height="30" x="950" y="30" style="fill:lightblue; stroke:black; stroke-width:2px;"/>
    <rect width="20" height="30" x="950" y="30" style="fill:yellow; stroke:black; stroke-width:2px;"/>
    <text x="955" y="45" style="font-size:14px;color:black;">1</text>
    <text x="1025" y="20" style="font-size:14px;color:black;">Planche 14</text>
    <rect width="25" height="30" x="1025" y="30" style="fill:lightblue; stroke:black; stroke-width:2px;"/>
    <rect width="20" height="30" x="1025" y="30" style="fill:yellow; stroke:black; stroke-width:2px;"/>
    <text x="1030" y="45" style="font-size:14px;color:black;">1</text>
    <text x="1100" y="20" style="font-size:14px;color:black;">Planche 15</text>
    <rect width="25" height="30" x="1100" y="30" style="fill:lightblue; stroke:black; stroke-width:2px;"/>
    <rect width="20" height="30" x="1100" y="30" style="fill:yellow; stroke:black; stroke-width:2px;"/>
    <text x="1105" y="45" style="font-size:14px;color:black;">1</text>
    
</svg>
