<?xml version="1.0"?>
<svg xmlns="http://www.w3.org/2000/svg" version="1.1"
><text x="30" y="20" style="font-size:14px;color:black;">Planche 1</text>
<rect width="240" height="360" x="30" y="30" style="fill:lightblue; stroke:black; stroke-width:2px;"></rect>
<rect width="150" height="150" x="30" y="30" style="fill:yellow; stroke:black; stroke-width:2px;"></rect>
<text x="100" y="105" style="font-size:14px;color:black;">4567</text>
<rect width="150" height="150" x="30" y="180" style="fill:yellow; stroke:black; stroke-width:2px;"></rect>
<text x="100" y="255" style="font-size:14px;color:black;">4567</text>
<text x="320" y="20" style="font-size:14px;color:black;">Planche 2</text>
<rect width="240" height="360" x="320" y="30" style="fill:lightblue; stroke:black; stroke-width:2px;"></rect>
<rect width="150" height="150" x="320" y="30" style="fill:yellow; stroke:black; stroke-width:2px;"></rect>
<text x="390" y="105" style="font-size:14px;color:black;">4567</text>
<rect width="150" height="150" x="320" y="180" style="fill:yellow; stroke:black; stroke-width:2px;"></rect>
<text x="390" y="255" style="font-size:14px;color:black;">4567</text>
<text x="610" y="20" style="font-size:14px;color:black;">Planche 3</text>
<rect width="240" height="360" x="610" y="30" style="fill:lightblue; stroke:black; stroke-width:2px;"></rect>
<rect width="150" height="150" x="610" y="30" style="fill:yellow; stroke:black; stroke-width:2px;"></rect>
<text x="680" y="105" style="font-size:14px;color:black;">4567</text>
<rect width="150" height="150" x="610" y="180" style="fill:yellow; stroke:black; stroke-width:2px;"></rect>
<text x="680" y="255" style="font-size:14px;color:black;">4567</text>
<text x="900" y="20" style="font-size:14px;color:black;">Planche 4</text>
<rect width="240" height="360" x="900" y="30" style="fill:lightblue; stroke:black; stroke-width:2px;"></rect>
<rect width="150" height="150" x="900" y="30" style="fill:yellow; stroke:black; stroke-width:2px;"></rect>
<text x="970" y="105" style="font-size:14px;color:black;">4567</text>
<rect width="150" height="150" x="900" y="180" style="fill:yellow; stroke:black; stroke-width:2px;"></rect>
<text x="970" y="255" style="font-size:14px;color:black;">4567</text>
<text x="1190" y="20" style="font-size:14px;color:black;">Planche 5</text>
<rect width="240" height="360" x="1190" y="30" style="fill:lightblue; stroke:black; stroke-width:2px;"></rect>
<rect width="150" height="150" x="1190" y="30" style="fill:yellow; stroke:black; stroke-width:2px;"></rect>
<text x="1260" y="105" style="font-size:14px;color:black;">4567</text>
<rect width="150" height="150" x="1190" y="180" style="fill:yellow; stroke:black; stroke-width:2px;"></rect>
<text x="1260" y="255" style="font-size:14px;color:black;">4567</text>
<text x="1480" y="20" style="font-size:14px;color:black;">Planche 6</text>
<rect width="240" height="360" x="1480" y="30" style="fill:lightblue; stroke:black; stroke-width:2px;"></rect>
<rect width="150" height="150" x="1480" y="30" style="fill:yellow; stroke:black; stroke-width:2px;"></rect>
<text x="1550" y="105" style="font-size:14px;color:black;">4567</text>
<rect width="150" height="150" x="1480" y="180" style="fill:yellow; stroke:black; stroke-width:2px;"></rect>
<text x="1550" y="255" style="font-size:14px;color:black;">4567</text>
<text x="1770" y="20" style="font-size:14px;color:black;">Planche 7</text>
<rect width="240" height="360" x="1770" y="30" style="fill:lightblue; stroke:black; stroke-width:2px;"></rect>
<rect width="150" height="150" x="1770" y="30" style="fill:yellow; stroke:black; stroke-width:2px;"></rect>
<text x="1840" y="105" style="font-size:14px;color:black;">4567</text>
<rect width="150" height="150" x="1770" y="180" style="fill:yellow; stroke:black; stroke-width:2px;"></rect>
<text x="1840" y="255" style="font-size:14px;color:black;">4567</text>
<text x="2060" y="20" style="font-size:14px;color:black;">Planche 8</text>
<rect width="240" height="360" x="2060" y="30" style="fill:lightblue; stroke:black; stroke-width:2px;"></rect>
<rect width="150" height="150" x="2060" y="30" style="fill:yellow; stroke:black; stroke-width:2px;"></rect>
<text x="2130" y="105" style="font-size:14px;color:black;">4567</text>
<rect width="150" height="150" x="2060" y="180" style="fill:yellow; stroke:black; stroke-width:2px;"></rect>
<text x="2130" y="255" style="font-size:14px;color:black;">4567</text>
<text x="2350" y="20" style="font-size:14px;color:black;">Planche 9</text>
<rect width="240" height="360" x="2350" y="30" style="fill:lightblue; stroke:black; stroke-width:2px;"></rect>
<rect width="150" height="150" x="2350" y="30" style="fill:yellow; stroke:black; stroke-width:2px;"></rect>
<text x="2420" y="105" style="font-size:14px;color:black;">4567</text>
<rect width="150" height="150" x="2350" y="180" style="fill:yellow; stroke:black; stroke-width:2px;"></rect>
<text x="2420" y="255" style="font-size:14px;color:black;">4567</text>
<text x="2640" y="20" style="font-size:14px;color:black;">Planche 10</text>
<rect width="240" height="360" x="2640" y="30" style="fill:lightblue; stroke:black; stroke-width:2px;"></rect>
<rect width="150" height="150" x="2640" y="30" style="fill:yellow; stroke:black; stroke-width:2px;"></rect>
<text x="2710" y="105" style="font-size:14px;color:black;">4567</text>
<rect width="150" height="150" x="2640" y="180" style="fill:yellow; stroke:black; stroke-width:2px;"></rect>
<text x="2710" y="255" style="font-size:14px;color:black;">4567</text>
<rect width="50" height="50" x="180" y="30" style="fill:yellow; stroke:black; stroke-width:2px;"></rect>
<text x="200" y="55" style="font-size:14px;color:black;">1</text>
<rect width="50" height="50" x="180" y="180" style="fill:yellow; stroke:black; stroke-width:2px;"></rect>
<text x="200" y="205" style="font-size:14px;color:black;">1</text>
<rect width="50" height="50" x="470" y="30" style="fill:yellow; stroke:black; stroke-width:2px;"></rect>
<text x="490" y="55" style="font-size:14px;color:black;">1</text>
<rect width="50" height="50" x="470" y="180" style="fill:yellow; stroke:black; stroke-width:2px;"></rect>
<text x="490" y="205" style="font-size:14px;color:black;">1</text>
<rect width="50" height="50" x="760" y="30" style="fill:yellow; stroke:black; stroke-width:2px;"></rect>
<text x="780" y="55" style="font-size:14px;color:black;">1</text>
<rect width="50" height="50" x="2640" y="330" style="fill:yellow; stroke:black; stroke-width:2px;"></rect>
<text x="2660" y="355" style="font-size:14px;color:black;">1</text>
<rect width="20" height="30" x="230" y="30" style="fill:yellow; stroke:black; stroke-width:2px;"></rect>
<text x="235" y="45" style="font-size:14px;color:black;">3</text>
<rect width="20" height="30" x="230" y="180" style="fill:yellow; stroke:black; stroke-width:2px;"></rect>
<text x="235" y="195" style="font-size:14px;color:black;">3</text>
<rect width="20" height="30" x="520" y="30" style="fill:yellow; stroke:black; stroke-width:2px;"></rect>
<text x="525" y="45" style="font-size:14px;color:black;">3</text>
<rect width="20" height="30" x="520" y="180" style="fill:yellow; stroke:black; stroke-width:2px;"></rect>
<text x="525" y="195" style="font-size:14px;color:black;">3</text>
<rect width="20" height="30" x="810" y="30" style="fill:yellow; stroke:black; stroke-width:2px;"></rect>
<text x="815" y="45" style="font-size:14px;color:black;">3</text>
<rect width="20" height="30" x="760" y="180" style="fill:yellow; stroke:black; stroke-width:2px;"></rect>
<text x="765" y="195" style="font-size:14px;color:black;">3</text>
<rect width="20" height="30" x="780" y="180" style="fill:yellow; stroke:black; stroke-width:2px;"></rect>
<text x="785" y="195" style="font-size:14px;color:black;">3</text>
<rect width="20" height="30" x="800" y="180" style="fill:yellow; stroke:black; stroke-width:2px;"></rect>
<text x="805" y="195" style="font-size:14px;color:black;">3</text>
<rect width="20" height="30" x="820" y="180" style="fill:yellow; stroke:black; stroke-width:2px;"></rect>
<text x="825" y="195" style="font-size:14px;color:black;">3</text>
<rect width="20" height="30" x="1050" y="30" style="fill:yellow; stroke:black; stroke-width:2px;"></rect>
<text x="1055" y="45" style="font-size:14px;color:black;">3</text>
<rect width="20" height="30" x="1070" y="30" style="fill:yellow; stroke:black; stroke-width:2px;"></rect>
<text x="1075" y="45" style="font-size:14px;color:black;">3</text>
<rect width="20" height="30" x="1090" y="30" style="fill:yellow; stroke:black; stroke-width:2px;"></rect>
<text x="1095" y="45" style="font-size:14px;color:black;">3</text>
<rect width="20" height="30" x="1110" y="30" style="fill:yellow; stroke:black; stroke-width:2px;"></rect>
<text x="1115" y="45" style="font-size:14px;color:black;">3</text>
<rect width="20" height="30" x="1050" y="180" style="fill:yellow; stroke:black; stroke-width:2px;"></rect>
<text x="1055" y="195" style="font-size:14px;color:black;">3</text>
<rect width="20" height="30" x="1070" y="180" style="fill:yellow; stroke:black; stroke-width:2px;"></rect>
<text x="1075" y="195" style="font-size:14px;color:black;">3</text>
<text x="2930" y="20" style="font-size:14px;color:black;">Planche 11</text>
<rect width="240" height="360" x="2930" y="30" style="fill:lightblue; stroke:black; stroke-width:2px;"></rect>
<rect width="20" height="30" x="2930" y="30" style="fill:yellow; stroke:black; stroke-width:2px;"></rect>
<text x="2935" y="45" style="font-size:14px;color:black;">3</text>
</svg>
