<?xml version="1.0"?>
<svg xmlns="http://www.w3.org/2000/svg" version="1.1"
><text x="30" y="20" style="font-size:14px;color:black;">Planche 1</text>
<rect width="123" height="123" x="30" y="30" style="fill:lightblue; stroke:black; stroke-width:2px;"></rect>
<rect width="50" height="50" x="30" y="30" style="fill:yellow; stroke:black; stroke-width:2px;"></rect>
<text x="50" y="55" style="font-size:14px;color:black;">1</text>
<rect width="50" height="50" x="30" y="80" style="fill:yellow; stroke:black; stroke-width:2px;"></rect>
<text x="50" y="105" style="font-size:14px;color:black;">1</text>
<text x="203" y="20" style="font-size:14px;color:black;">Planche 2</text>
<rect width="123" height="123" x="203" y="30" style="fill:lightblue; stroke:black; stroke-width:2px;"></rect>
<rect width="50" height="50" x="203" y="30" style="fill:yellow; stroke:black; stroke-width:2px;"></rect>
<text x="223" y="55" style="font-size:14px;color:black;">1</text>
<rect width="50" height="50" x="203" y="80" style="fill:yellow; stroke:black; stroke-width:2px;"></rect>
<text x="223" y="105" style="font-size:14px;color:black;">1</text>
<text x="376" y="20" style="font-size:14px;color:black;">Planche 3</text>
<rect width="123" height="123" x="376" y="30" style="fill:lightblue; stroke:black; stroke-width:2px;"></rect>
<rect width="50" height="50" x="376" y="30" style="fill:yellow; stroke:black; stroke-width:2px;"></rect>
<text x="396" y="55" style="font-size:14px;color:black;">1</text>
<rect width="20" height="50" x="376" y="80" style="fill:yellow; stroke:black; stroke-width:2px;"></rect>
<text x="381" y="105" style="font-size:14px;color:black;">2</text>
<text x="549" y="20" style="font-size:14px;color:black;">Planche 4</text>
<rect width="123" height="123" x="549" y="30" style="fill:lightblue; stroke:black; stroke-width:2px;"></rect>
<rect width="20" height="50" x="549" y="30" style="fill:yellow; stroke:black; stroke-width:2px;"></rect>
<text x="554" y="55" style="font-size:14px;color:black;">2</text>
<rect width="20" height="50" x="549" y="80" style="fill:yellow; stroke:black; stroke-width:2px;"></rect>
<text x="554" y="105" style="font-size:14px;color:black;">2</text>
<text x="722" y="20" style="font-size:14px;color:black;">Planche 5</text>
<rect width="123" height="123" x="722" y="30" style="fill:lightblue; stroke:black; stroke-width:2px;"></rect>
<rect width="20" height="50" x="722" y="30" style="fill:yellow; stroke:black; stroke-width:2px;"></rect>
<text x="727" y="55" style="font-size:14px;color:black;">2</text>
<rect width="20" height="50" x="722" y="80" style="fill:yellow; stroke:black; stroke-width:2px;"></rect>
<text x="727" y="105" style="font-size:14px;color:black;">2</text>
<text x="895" y="20" style="font-size:14px;color:black;">Planche 6</text>
<rect width="123" height="123" x="895" y="30" style="fill:lightblue; stroke:black; stroke-width:2px;"></rect>
<rect width="20" height="50" x="895" y="30" style="fill:yellow; stroke:black; stroke-width:2px;"></rect>
<text x="900" y="55" style="font-size:14px;color:black;">2</text>
<rect width="20" height="50" x="895" y="80" style="fill:yellow; stroke:black; stroke-width:2px;"></rect>
<text x="900" y="105" style="font-size:14px;color:black;">2</text>
<text x="1068" y="20" style="font-size:14px;color:black;">Planche 7</text>
<rect width="123" height="123" x="1068" y="30" style="fill:lightblue; stroke:black; stroke-width:2px;"></rect>
<rect width="20" height="50" x="1068" y="30" style="fill:yellow; stroke:black; stroke-width:2px;"></rect>
<text x="1073" y="55" style="font-size:14px;color:black;">2</text>
<rect width="20" height="50" x="1068" y="80" style="fill:yellow; stroke:black; stroke-width:2px;"></rect>
<text x="1073" y="105" style="font-size:14px;color:black;">2</text>
<text x="1241" y="20" style="font-size:14px;color:black;">Planche 8</text>
<rect width="123" height="123" x="1241" y="30" style="fill:lightblue; stroke:black; stroke-width:2px;"></rect>
<rect width="20" height="50" x="1241" y="30" style="fill:yellow; stroke:black; stroke-width:2px;"></rect>
<text x="1246" y="55" style="font-size:14px;color:black;">2</text>
<rect width="20" height="50" x="1241" y="80" style="fill:yellow; stroke:black; stroke-width:2px;"></rect>
<text x="1246" y="105" style="font-size:14px;color:black;">2</text>
<text x="1414" y="20" style="font-size:14px;color:black;">Planche 9</text>
<rect width="123" height="123" x="1414" y="30" style="fill:lightblue; stroke:black; stroke-width:2px;"></rect>
<rect width="20" height="50" x="1414" y="30" style="fill:yellow; stroke:black; stroke-width:2px;"></rect>
<text x="1419" y="55" style="font-size:14px;color:black;">2</text>
<rect width="20" height="50" x="1414" y="80" style="fill:yellow; stroke:black; stroke-width:2px;"></rect>
<text x="1419" y="105" style="font-size:14px;color:black;">2</text>
<text x="1587" y="20" style="font-size:14px;color:black;">Planche 10</text>
<rect width="123" height="123" x="1587" y="30" style="fill:lightblue; stroke:black; stroke-width:2px;"></rect>
<rect width="20" height="50" x="1587" y="30" style="fill:yellow; stroke:black; stroke-width:2px;"></rect>
<text x="1592" y="55" style="font-size:14px;color:black;">2</text>
<rect width="20" height="50" x="1587" y="80" style="fill:yellow; stroke:black; stroke-width:2px;"></rect>
<text x="1592" y="105" style="font-size:14px;color:black;">2</text>
<text x="1760" y="20" style="font-size:14px;color:black;">Planche 11</text>
<rect width="123" height="123" x="1760" y="30" style="fill:lightblue; stroke:black; stroke-width:2px;"></rect>
<rect width="20" height="50" x="1760" y="30" style="fill:yellow; stroke:black; stroke-width:2px;"></rect>
<text x="1765" y="55" style="font-size:14px;color:black;">2</text>
<rect width="20" height="50" x="1760" y="80" style="fill:yellow; stroke:black; stroke-width:2px;"></rect>
<text x="1765" y="105" style="font-size:14px;color:black;">2</text>
<text x="1933" y="20" style="font-size:14px;color:black;">Planche 12</text>
<rect width="123" height="123" x="1933" y="30" style="fill:lightblue; stroke:black; stroke-width:2px;"></rect>
<rect width="20" height="50" x="1933" y="30" style="fill:yellow; stroke:black; stroke-width:2px;"></rect>
<text x="1938" y="55" style="font-size:14px;color:black;">2</text>
<rect width="20" height="50" x="1933" y="80" style="fill:yellow; stroke:black; stroke-width:2px;"></rect>
<text x="1938" y="105" style="font-size:14px;color:black;">2</text>
<text x="2106" y="20" style="font-size:14px;color:black;">Planche 13</text>
<rect width="123" height="123" x="2106" y="30" style="fill:lightblue; stroke:black; stroke-width:2px;"></rect>
<rect width="20" height="50" x="2106" y="30" style="fill:yellow; stroke:black; stroke-width:2px;"></rect>
<text x="2111" y="55" style="font-size:14px;color:black;">2</text>
<rect width="30" height="20" x="2106" y="80" style="fill:yellow; stroke:black; stroke-width:2px;"></rect>
<text x="2116" y="90" style="font-size:14px;color:black;">3</text>
<rect width="30" height="20" x="2106" y="100" style="fill:yellow; stroke:black; stroke-width:2px;"></rect>
<text x="2116" y="110" style="font-size:14px;color:black;">3</text>
<rect width="30" height="20" x="2106" y="120" style="fill:yellow; stroke:black; stroke-width:2px;"></rect>
<text x="2116" y="130" style="font-size:14px;color:black;">3</text>
<text x="2279" y="20" style="font-size:14px;color:black;">Planche 14</text>
<rect width="123" height="123" x="2279" y="30" style="fill:lightblue; stroke:black; stroke-width:2px;"></rect>
<rect width="30" height="20" x="2279" y="30" style="fill:yellow; stroke:black; stroke-width:2px;"></rect>
<text x="2289" y="40" style="font-size:14px;color:black;">3</text>
<rect width="30" height="20" x="2279" y="50" style="fill:yellow; stroke:black; stroke-width:2px;"></rect>
<text x="2289" y="60" style="font-size:14px;color:black;">3</text>
<rect width="30" height="20" x="2279" y="70" style="fill:yellow; stroke:black; stroke-width:2px;"></rect>
<text x="2289" y="80" style="font-size:14px;color:black;">3</text>
<rect width="30" height="20" x="2279" y="90" style="fill:yellow; stroke:black; stroke-width:2px;"></rect>
<text x="2289" y="100" style="font-size:14px;color:black;">3</text>
<rect width="30" height="20" x="2279" y="110" style="fill:yellow; stroke:black; stroke-width:2px;"></rect>
<text x="2289" y="120" style="font-size:14px;color:black;">3</text>
<rect width="30" height="20" x="2279" y="130" style="fill:yellow; stroke:black; stroke-width:2px;"></rect>
<text x="2289" y="140" style="font-size:14px;color:black;">3</text>
<text x="2452" y="20" style="font-size:14px;color:black;">Planche 15</text>
<rect width="123" height="123" x="2452" y="30" style="fill:lightblue; stroke:black; stroke-width:2px;"></rect>
<rect width="30" height="20" x="2452" y="30" style="fill:yellow; stroke:black; stroke-width:2px;"></rect>
<text x="2462" y="40" style="font-size:14px;color:black;">3</text>
<rect width="30" height="20" x="2452" y="50" style="fill:yellow; stroke:black; stroke-width:2px;"></rect>
<text x="2462" y="60" style="font-size:14px;color:black;">3</text>
<rect width="30" height="20" x="2452" y="70" style="fill:yellow; stroke:black; stroke-width:2px;"></rect>
<text x="2462" y="80" style="font-size:14px;color:black;">3</text>
<rect width="30" height="20" x="2452" y="90" style="fill:yellow; stroke:black; stroke-width:2px;"></rect>
<text x="2462" y="100" style="font-size:14px;color:black;">3</text>
<rect width="30" height="20" x="2452" y="110" style="fill:yellow; stroke:black; stroke-width:2px;"></rect>
<text x="2462" y="120" style="font-size:14px;color:black;">3</text>
<rect width="30" height="20" x="2452" y="130" style="fill:yellow; stroke:black; stroke-width:2px;"></rect>
<text x="2462" y="140" style="font-size:14px;color:black;">3</text>
</svg>
