<?xml version="1.0"?>
<svg xmlns="http://www.w3.org/2000/svg" version="1.1" width="1210" height="420">

    <text x="50" y="20" style="font-size:14px;color:black;">Planche 1</text>
    <rect width="240" height="360" x="50" y="30" style="fill:lightblue; stroke:black; stroke-width:2px;"/>
    <rect width="50" height="50" x="50" y="30" style="fill:yellow; stroke:black; stroke-width:2px;"/>
    <text x="70" y="55" style="font-size:14px;color:black;">2</text>
    <rect width="50" height="50" x="50" y="80" style="fill:yellow; stroke:black; stroke-width:2px;"/>
    <text x="70" y="105" style="font-size:14px;color:black;">2</text>
    <rect width="50" height="50" x="50" y="130" style="fill:yellow; stroke:black; stroke-width:2px;"/>
    <text x="70" y="155" style="font-size:14px;color:black;">2</text>
    <rect width="50" height="50" x="50" y="180" style="fill:yellow; stroke:black; stroke-width:2px;"/>
    <text x="70" y="205" style="font-size:14px;color:black;">2</text>
    <rect width="50" height="50" x="50" y="230" style="fill:yellow; stroke:black; stroke-width:2px;"/>
    <text x="70" y="255" style="font-size:14px;color:black;">2</text>
    <rect width="15" height="50" x="50" y="280" style="fill:yellow; stroke:black; stroke-width:2px;"/>
    <text x="52" y="305" style="font-size:14px;color:black;">3</text>
    <rect width="15" height="50" x="50" y="330" style="fill:yellow; stroke:black; stroke-width:2px;"/>
    <text x="52" y="355" style="font-size:14px;color:black;">3</text>
    <text x="340" y="20" style="font-size:14px;color:black;">Planche 2</text>
    <rect width="240" height="360" x="340" y="30" style="fill:lightblue; stroke:black; stroke-width:2px;"/>
    <rect width="15" height="50" x="340" y="30" style="fill:yellow; stroke:black; stroke-width:2px;"/>
    <text x="342" y="55" style="font-size:14px;color:black;">3</text>
    <rect width="15" height="50" x="340" y="80" style="fill:yellow; stroke:black; stroke-width:2px;"/>
    <text x="342" y="105" style="font-size:14px;color:black;">3</text>
    <rect width="15" height="50" x="340" y="130" style="fill:yellow; stroke:black; stroke-width:2px;"/>
    <text x="342" y="155" style="font-size:14px;color:black;">3</text>
    <rect width="15" height="50" x="340" y="180" style="fill:yellow; stroke:black; stroke-width:2px;"/>
    <text x="342" y="205" style="font-size:14px;color:black;">3</text>
    <rect width="15" height="50" x="340" y="230" style="fill:yellow; stroke:black; stroke-width:2px;"/>
    <text x="342" y="255" style="font-size:14px;color:black;">3</text>
    <rect width="15" height="50" x="340" y="280" style="fill:yellow; stroke:black; stroke-width:2px;"/>
    <text x="342" y="305" style="font-size:14px;color:black;">3</text>
    <rect width="15" height="50" x="340" y="330" style="fill:yellow; stroke:black; stroke-width:2px;"/>
    <text x="342" y="355" style="font-size:14px;color:black;">3</text>
    <text x="630" y="20" style="font-size:14px;color:black;">Planche 3</text>
    <rect width="240" height="360" x="630" y="30" style="fill:lightblue; stroke:black; stroke-width:2px;"/>
    <rect width="15" height="50" x="630" y="30" style="fill:yellow; stroke:black; stroke-width:2px;"/>
    <text x="632" y="55" style="font-size:14px;color:black;">3</text>
    <rect width="20" height="30" x="630" y="80" style="fill:yellow; stroke:black; stroke-width:2px;"/>
    <text x="635" y="95" style="font-size:14px;color:black;">1</text>
    <rect width="20" height="30" x="630" y="110" style="fill:yellow; stroke:black; stroke-width:2px;"/>
    <text x="635" y="125" style="font-size:14px;color:black;">1</text>
    <rect width="20" height="30" x="630" y="140" style="fill:yellow; stroke:black; stroke-width:2px;"/>
    <text x="635" y="155" style="font-size:14px;color:black;">1</text>
    <rect width="20" height="30" x="630" y="170" style="fill:yellow; stroke:black; stroke-width:2px;"/>
    <text x="635" y="185" style="font-size:14px;color:black;">1</text>
    <rect width="20" height="30" x="630" y="200" style="fill:yellow; stroke:black; stroke-width:2px;"/>
    <text x="635" y="215" style="font-size:14px;color:black;">1</text>
    <rect width="20" height="30" x="630" y="230" style="fill:yellow; stroke:black; stroke-width:2px;"/>
    <text x="635" y="245" style="font-size:14px;color:black;">1</text>
    <rect width="20" height="30" x="630" y="260" style="fill:yellow; stroke:black; stroke-width:2px;"/>
    <text x="635" y="275" style="font-size:14px;color:black;">1</text>
    <rect width="20" height="30" x="630" y="290" style="fill:yellow; stroke:black; stroke-width:2px;"/>
    <text x="635" y="305" style="font-size:14px;color:black;">1</text>
    <rect width="20" height="30" x="630" y="320" style="fill:yellow; stroke:black; stroke-width:2px;"/>
    <text x="635" y="335" style="font-size:14px;color:black;">1</text>
    <rect width="20" height="30" x="630" y="350" style="fill:yellow; stroke:black; stroke-width:2px;"/>
    <text x="635" y="365" style="font-size:14px;color:black;">1</text>
    <text x="920" y="20" style="font-size:14px;color:black;">Planche 4</text>
    <rect width="240" height="360" x="920" y="30" style="fill:lightblue; stroke:black; stroke-width:2px;"/>
    <rect width="20" height="30" x="920" y="30" style="fill:yellow; stroke:black; stroke-width:2px;"/>
    <text x="925" y="45" style="font-size:14px;color:black;">1</text>
    <rect width="20" height="30" x="920" y="60" style="fill:yellow; stroke:black; stroke-width:2px;"/>
    <text x="925" y="75" style="font-size:14px;color:black;">1</text>
    <rect width="20" height="30" x="920" y="90" style="fill:yellow; stroke:black; stroke-width:2px;"/>
    <text x="925" y="105" style="font-size:14px;color:black;">1</text>
    <rect width="20" height="30" x="920" y="120" style="fill:yellow; stroke:black; stroke-width:2px;"/>
    <text x="925" y="135" style="font-size:14px;color:black;">1</text>
    <rect width="20" height="30" x="920" y="150" style="fill:yellow; stroke:black; stroke-width:2px;"/>
    <text x="925" y="165" style="font-size:14px;color:black;">1</text>
    
</svg>
