<?xml version="1.0"?>
<svg xmlns="http://www.w3.org/2000/svg" version="1.1" width="3530" height="420">

    <text x="50" y="20" style="font-size:14px;color:black;">Planche 1</text>
    <rect width="240" height="360" x="50" y="30" style="fill:lightblue; stroke:black; stroke-width:2px;"/>
    <rect width="150" height="150" x="50" y="30" style="fill:yellow; stroke:black; stroke-width:2px;"/>
    <text x="120" y="105" style="font-size:14px;color:black;">4567</text>
    <rect width="150" height="150" x="50" y="180" style="fill:yellow; stroke:black; stroke-width:2px;"/>
    <text x="120" y="255" style="font-size:14px;color:black;">4567</text>
    <text x="340" y="20" style="font-size:14px;color:black;">Planche 2</text>
    <rect width="240" height="360" x="340" y="30" style="fill:lightblue; stroke:black; stroke-width:2px;"/>
    <rect width="150" height="150" x="340" y="30" style="fill:yellow; stroke:black; stroke-width:2px;"/>
    <text x="410" y="105" style="font-size:14px;color:black;">4567</text>
    <rect width="150" height="150" x="340" y="180" style="fill:yellow; stroke:black; stroke-width:2px;"/>
    <text x="410" y="255" style="font-size:14px;color:black;">4567</text>
    <text x="630" y="20" style="font-size:14px;color:black;">Planche 3</text>
    <rect width="240" height="360" x="630" y="30" style="fill:lightblue; stroke:black; stroke-width:2px;"/>
    <rect width="150" height="150" x="630" y="30" style="fill:yellow; stroke:black; stroke-width:2px;"/>
    <text x="700" y="105" style="font-size:14px;color:black;">4567</text>
    <rect width="150" height="150" x="630" y="180" style="fill:yellow; stroke:black; stroke-width:2px;"/>
    <text x="700" y="255" style="font-size:14px;color:black;">4567</text>
    <text x="920" y="20" style="font-size:14px;color:black;">Planche 4</text>
    <rect width="240" height="360" x="920" y="30" style="fill:lightblue; stroke:black; stroke-width:2px;"/>
    <rect width="150" height="150" x="920" y="30" style="fill:yellow; stroke:black; stroke-width:2px;"/>
    <text x="990" y="105" style="font-size:14px;color:black;">4567</text>
    <rect width="150" height="150" x="920" y="180" style="fill:yellow; stroke:black; stroke-width:2px;"/>
    <text x="990" y="255" style="font-size:14px;color:black;">4567</text>
    <text x="1210" y="20" style="font-size:14px;color:black;">Planche 5</text>
    <rect width="240" height="360" x="1210" y="30" style="fill:lightblue; stroke:black; stroke-width:2px;"/>
    <rect width="150" height="150" x="1210" y="30" style="fill:yellow; stroke:black; stroke-width:2px;"/>
    <text x="1280" y="105" style="font-size:14px;color:black;">4567</text>
    <rect width="150" height="150" x="1210" y="180" style="fill:yellow; stroke:black; stroke-width:2px;"/>
    <text x="1280" y="255" style="font-size:14px;color:black;">4567</text>
    <text x="1500" y="20" style="font-size:14px;color:black;">Planche 6</text>
    <rect width="240" height="360" x="1500" y="30" style="fill:lightblue; stroke:black; stroke-width:2px;"/>
    <rect width="150" height="150" x="1500" y="30" style="fill:yellow; stroke:black; stroke-width:2px;"/>
    <text x="1570" y="105" style="font-size:14px;color:black;">4567</text>
    <rect width="150" height="150" x="1500" y="180" style="fill:yellow; stroke:black; stroke-width:2px;"/>
    <text x="1570" y="255" style="font-size:14px;color:black;">4567</text>
    <text x="1790" y="20" style="font-size:14px;color:black;">Planche 7</text>
    <rect width="240" height="360" x="1790" y="30" style="fill:lightblue; stroke:black; stroke-width:2px;"/>
    <rect width="150" height="150" x="1790" y="30" style="fill:yellow; stroke:black; stroke-width:2px;"/>
    <text x="1860" y="105" style="font-size:14px;color:black;">4567</text>
    <rect width="150" height="150" x="1790" y="180" style="fill:yellow; stroke:black; stroke-width:2px;"/>
    <text x="1860" y="255" style="font-size:14px;color:black;">4567</text>
    <text x="2080" y="20" style="font-size:14px;color:black;">Planche 8</text>
    <rect width="240" height="360" x="2080" y="30" style="fill:lightblue; stroke:black; stroke-width:2px;"/>
    <rect width="150" height="150" x="2080" y="30" style="fill:yellow; stroke:black; stroke-width:2px;"/>
    <text x="2150" y="105" style="font-size:14px;color:black;">4567</text>
    <rect width="150" height="150" x="2080" y="180" style="fill:yellow; stroke:black; stroke-width:2px;"/>
    <text x="2150" y="255" style="font-size:14px;color:black;">4567</text>
    <text x="2370" y="20" style="font-size:14px;color:black;">Planche 9</text>
    <rect width="240" height="360" x="2370" y="30" style="fill:lightblue; stroke:black; stroke-width:2px;"/>
    <rect width="150" height="150" x="2370" y="30" style="fill:yellow; stroke:black; stroke-width:2px;"/>
    <text x="2440" y="105" style="font-size:14px;color:black;">4567</text>
    <rect width="150" height="150" x="2370" y="180" style="fill:yellow; stroke:black; stroke-width:2px;"/>
    <text x="2440" y="255" style="font-size:14px;color:black;">4567</text>
    <text x="2660" y="20" style="font-size:14px;color:black;">Planche 10</text>
    <rect width="240" height="360" x="2660" y="30" style="fill:lightblue; stroke:black; stroke-width:2px;"/>
    <rect width="150" height="150" x="2660" y="30" style="fill:yellow; stroke:black; stroke-width:2px;"/>
    <text x="2730" y="105" style="font-size:14px;color:black;">4567</text>
    <rect width="150" height="150" x="2660" y="180" style="fill:yellow; stroke:black; stroke-width:2px;"/>
    <text x="2730" y="255" style="font-size:14px;color:black;">4567</text>
    <rect width="50" height="50" x="2660" y="330" style="fill:yellow; stroke:black; stroke-width:2px;"/>
    <text x="2680" y="355" style="font-size:14px;color:black;">1</text>
    <text x="2950" y="20" style="font-size:14px;color:black;">Planche 11</text>
    <rect width="240" height="360" x="2950" y="30" style="fill:lightblue; stroke:black; stroke-width:2px;"/>
    <rect width="50" height="50" x="2950" y="30" style="fill:yellow; stroke:black; stroke-width:2px;"/>
    <text x="2970" y="55" style="font-size:14px;color:black;">1</text>
    <rect width="50" height="50" x="2950" y="80" style="fill:yellow; stroke:black; stroke-width:2px;"/>
    <text x="2970" y="105" style="font-size:14px;color:black;">1</text>
    <rect width="50" height="50" x="2950" y="130" style="fill:yellow; stroke:black; stroke-width:2px;"/>
    <text x="2970" y="155" style="font-size:14px;color:black;">1</text>
    <rect width="50" height="50" x="2950" y="180" style="fill:yellow; stroke:black; stroke-width:2px;"/>
    <text x="2970" y="205" style="font-size:14px;color:black;">1</text>
    <rect width="20" height="30" x="2950" y="230" style="fill:yellow; stroke:black; stroke-width:2px;"/>
    <text x="2955" y="245" style="font-size:14px;color:black;">3</text>
    <rect width="20" height="30" x="2950" y="260" style="fill:yellow; stroke:black; stroke-width:2px;"/>
    <text x="2955" y="275" style="font-size:14px;color:black;">3</text>
    <rect width="20" height="30" x="2950" y="290" style="fill:yellow; stroke:black; stroke-width:2px;"/>
    <text x="2955" y="305" style="font-size:14px;color:black;">3</text>
    <rect width="20" height="30" x="2950" y="320" style="fill:yellow; stroke:black; stroke-width:2px;"/>
    <text x="2955" y="335" style="font-size:14px;color:black;">3</text>
    <rect width="20" height="30" x="2950" y="350" style="fill:yellow; stroke:black; stroke-width:2px;"/>
    <text x="2955" y="365" style="font-size:14px;color:black;">3</text>
    <text x="3240" y="20" style="font-size:14px;color:black;">Planche 12</text>
    <rect width="240" height="360" x="3240" y="30" style="fill:lightblue; stroke:black; stroke-width:2px;"/>
    <rect width="20" height="30" x="3240" y="30" style="fill:yellow; stroke:black; stroke-width:2px;"/>
    <text x="3245" y="45" style="font-size:14px;color:black;">3</text>
    <rect width="20" height="30" x="3240" y="60" style="fill:yellow; stroke:black; stroke-width:2px;"/>
    <text x="3245" y="75" style="font-size:14px;color:black;">3</text>
    <rect width="20" height="30" x="3240" y="90" style="fill:yellow; stroke:black; stroke-width:2px;"/>
    <text x="3245" y="105" style="font-size:14px;color:black;">3</text>
    <rect width="20" height="30" x="3240" y="120" style="fill:yellow; stroke:black; stroke-width:2px;"/>
    <text x="3245" y="135" style="font-size:14px;color:black;">3</text>
    <rect width="20" height="30" x="3240" y="150" style="fill:yellow; stroke:black; stroke-width:2px;"/>
    <text x="3245" y="165" style="font-size:14px;color:black;">3</text>
    <rect width="20" height="30" x="3240" y="180" style="fill:yellow; stroke:black; stroke-width:2px;"/>
    <text x="3245" y="195" style="font-size:14px;color:black;">3</text>
    <rect width="20" height="30" x="3240" y="210" style="fill:yellow; stroke:black; stroke-width:2px;"/>
    <text x="3245" y="225" style="font-size:14px;color:black;">3</text>
    <rect width="20" height="30" x="3240" y="240" style="fill:yellow; stroke:black; stroke-width:2px;"/>
    <text x="3245" y="255" style="font-size:14px;color:black;">3</text>
    <rect width="20" height="30" x="3240" y="270" style="fill:yellow; stroke:black; stroke-width:2px;"/>
    <text x="3245" y="285" style="font-size:14px;color:black;">3</text>
    <rect width="20" height="30" x="3240" y="300" style="fill:yellow; stroke:black; stroke-width:2px;"/>
    <text x="3245" y="315" style="font-size:14px;color:black;">3</text>
    
</svg>
