<?xml version="1.0"?>
<svg xmlns="http://www.w3.org/2000/svg" version="1.1"
><text x="30" y="20" style="font-size:14px;color:black;">Planche 1</text>
<rect width="240" height="360" x="30" y="30" style="fill:lightblue; stroke:black; stroke-width:2px;"></rect>
<rect width="150" height="150" x="30" y="30" style="fill:yellow; stroke:black; stroke-width:2px;"></rect>
<text x="100" y="105" style="font-size:14px;color:black;">4567</text>
<rect width="150" height="150" x="30" y="180" style="fill:yellow; stroke:black; stroke-width:2px;"></rect>
<text x="100" y="255" style="font-size:14px;color:black;">4567</text>
<text x="320" y="20" style="font-size:14px;color:black;">Planche 2</text>
<rect width="240" height="360" x="320" y="30" style="fill:lightblue; stroke:black; stroke-width:2px;"></rect>
<rect width="150" height="150" x="320" y="30" style="fill:yellow; stroke:black; stroke-width:2px;"></rect>
<text x="390" y="105" style="font-size:14px;color:black;">4567</text>
<rect width="150" height="150" x="320" y="180" style="fill:yellow; stroke:black; stroke-width:2px;"></rect>
<text x="390" y="255" style="font-size:14px;color:black;">4567</text>
<text x="610" y="20" style="font-size:14px;color:black;">Planche 3</text>
<rect width="240" height="360" x="610" y="30" style="fill:lightblue; stroke:black; stroke-width:2px;"></rect>
<rect width="150" height="150" x="610" y="30" style="fill:yellow; stroke:black; stroke-width:2px;"></rect>
<text x="680" y="105" style="font-size:14px;color:black;">4567</text>
<rect width="150" height="150" x="610" y="180" style="fill:yellow; stroke:black; stroke-width:2px;"></rect>
<text x="680" y="255" style="font-size:14px;color:black;">4567</text>
<text x="900" y="20" style="font-size:14px;color:black;">Planche 4</text>
<rect width="240" height="360" x="900" y="30" style="fill:lightblue; stroke:black; stroke-width:2px;"></rect>
<rect width="150" height="150" x="900" y="30" style="fill:yellow; stroke:black; stroke-width:2px;"></rect>
<text x="970" y="105" style="font-size:14px;color:black;">4567</text>
<rect width="150" height="150" x="900" y="180" style="fill:yellow; stroke:black; stroke-width:2px;"></rect>
<text x="970" y="255" style="font-size:14px;color:black;">4567</text>
<text x="1190" y="20" style="font-size:14px;color:black;">Planche 5</text>
<rect width="240" height="360" x="1190" y="30" style="fill:lightblue; stroke:black; stroke-width:2px;"></rect>
<rect width="150" height="150" x="1190" y="30" style="fill:yellow; stroke:black; stroke-width:2px;"></rect>
<text x="1260" y="105" style="font-size:14px;color:black;">4567</text>
<rect width="150" height="150" x="1190" y="180" style="fill:yellow; stroke:black; stroke-width:2px;"></rect>
<text x="1260" y="255" style="font-size:14px;color:black;">4567</text>
<text x="1480" y="20" style="font-size:14px;color:black;">Planche 6</text>
<rect width="240" height="360" x="1480" y="30" style="fill:lightblue; stroke:black; stroke-width:2px;"></rect>
<rect width="150" height="150" x="1480" y="30" style="fill:yellow; stroke:black; stroke-width:2px;"></rect>
<text x="1550" y="105" style="font-size:14px;color:black;">4567</text>
<rect width="150" height="150" x="1480" y="180" style="fill:yellow; stroke:black; stroke-width:2px;"></rect>
<text x="1550" y="255" style="font-size:14px;color:black;">4567</text>
<text x="1770" y="20" style="font-size:14px;color:black;">Planche 7</text>
<rect width="240" height="360" x="1770" y="30" style="fill:lightblue; stroke:black; stroke-width:2px;"></rect>
<rect width="150" height="150" x="1770" y="30" style="fill:yellow; stroke:black; stroke-width:2px;"></rect>
<text x="1840" y="105" style="font-size:14px;color:black;">4567</text>
<rect width="150" height="150" x="1770" y="180" style="fill:yellow; stroke:black; stroke-width:2px;"></rect>
<text x="1840" y="255" style="font-size:14px;color:black;">4567</text>
<text x="2060" y="20" style="font-size:14px;color:black;">Planche 8</text>
<rect width="240" height="360" x="2060" y="30" style="fill:lightblue; stroke:black; stroke-width:2px;"></rect>
<rect width="150" height="150" x="2060" y="30" style="fill:yellow; stroke:black; stroke-width:2px;"></rect>
<text x="2130" y="105" style="font-size:14px;color:black;">4567</text>
<rect width="150" height="150" x="2060" y="180" style="fill:yellow; stroke:black; stroke-width:2px;"></rect>
<text x="2130" y="255" style="font-size:14px;color:black;">4567</text>
<text x="2350" y="20" style="font-size:14px;color:black;">Planche 9</text>
<rect width="240" height="360" x="2350" y="30" style="fill:lightblue; stroke:black; stroke-width:2px;"></rect>
<rect width="150" height="150" x="2350" y="30" style="fill:yellow; stroke:black; stroke-width:2px;"></rect>
<text x="2420" y="105" style="font-size:14px;color:black;">4567</text>
<rect width="150" height="150" x="2350" y="180" style="fill:yellow; stroke:black; stroke-width:2px;"></rect>
<text x="2420" y="255" style="font-size:14px;color:black;">4567</text>
<text x="2640" y="20" style="font-size:14px;color:black;">Planche 10</text>
<rect width="240" height="360" x="2640" y="30" style="fill:lightblue; stroke:black; stroke-width:2px;"></rect>
<rect width="150" height="150" x="2640" y="30" style="fill:yellow; stroke:black; stroke-width:2px;"></rect>
<text x="2710" y="105" style="font-size:14px;color:black;">4567</text>
<rect width="150" height="150" x="2640" y="180" style="fill:yellow; stroke:black; stroke-width:2px;"></rect>
<text x="2710" y="255" style="font-size:14px;color:black;">4567</text>
<rect width="50" height="50" x="2640" y="330" style="fill:yellow; stroke:black; stroke-width:2px;"></rect>
<text x="2660" y="355" style="font-size:14px;color:black;">1</text>
<text x="2930" y="20" style="font-size:14px;color:black;">Planche 11</text>
<rect width="240" height="360" x="2930" y="30" style="fill:lightblue; stroke:black; stroke-width:2px;"></rect>
<rect width="50" height="50" x="2930" y="30" style="fill:yellow; stroke:black; stroke-width:2px;"></rect>
<text x="2950" y="55" style="font-size:14px;color:black;">1</text>
<rect width="50" height="50" x="2930" y="80" style="fill:yellow; stroke:black; stroke-width:2px;"></rect>
<text x="2950" y="105" style="font-size:14px;color:black;">1</text>
<rect width="50" height="50" x="2930" y="130" style="fill:yellow; stroke:black; stroke-width:2px;"></rect>
<text x="2950" y="155" style="font-size:14px;color:black;">1</text>
<rect width="50" height="50" x="2930" y="180" style="fill:yellow; stroke:black; stroke-width:2px;"></rect>
<text x="2950" y="205" style="font-size:14px;color:black;">1</text>
<rect width="20" height="30" x="2930" y="230" style="fill:yellow; stroke:black; stroke-width:2px;"></rect>
<text x="2935" y="245" style="font-size:14px;color:black;">3</text>
<rect width="20" height="30" x="2930" y="260" style="fill:yellow; stroke:black; stroke-width:2px;"></rect>
<text x="2935" y="275" style="font-size:14px;color:black;">3</text>
<rect width="20" height="30" x="2930" y="290" style="fill:yellow; stroke:black; stroke-width:2px;"></rect>
<text x="2935" y="305" style="font-size:14px;color:black;">3</text>
<rect width="20" height="30" x="2930" y="320" style="fill:yellow; stroke:black; stroke-width:2px;"></rect>
<text x="2935" y="335" style="font-size:14px;color:black;">3</text>
<rect width="20" height="30" x="2930" y="350" style="fill:yellow; stroke:black; stroke-width:2px;"></rect>
<text x="2935" y="365" style="font-size:14px;color:black;">3</text>
<text x="3220" y="20" style="font-size:14px;color:black;">Planche 12</text>
<rect width="240" height="360" x="3220" y="30" style="fill:lightblue; stroke:black; stroke-width:2px;"></rect>
<rect width="20" height="30" x="3220" y="30" style="fill:yellow; stroke:black; stroke-width:2px;"></rect>
<text x="3225" y="45" style="font-size:14px;color:black;">3</text>
<rect width="20" height="30" x="3220" y="60" style="fill:yellow; stroke:black; stroke-width:2px;"></rect>
<text x="3225" y="75" style="font-size:14px;color:black;">3</text>
<rect width="20" height="30" x="3220" y="90" style="fill:yellow; stroke:black; stroke-width:2px;"></rect>
<text x="3225" y="105" style="font-size:14px;color:black;">3</text>
<rect width="20" height="30" x="3220" y="120" style="fill:yellow; stroke:black; stroke-width:2px;"></rect>
<text x="3225" y="135" style="font-size:14px;color:black;">3</text>
<rect width="20" height="30" x="3220" y="150" style="fill:yellow; stroke:black; stroke-width:2px;"></rect>
<text x="3225" y="165" style="font-size:14px;color:black;">3</text>
<rect width="20" height="30" x="3220" y="180" style="fill:yellow; stroke:black; stroke-width:2px;"></rect>
<text x="3225" y="195" style="font-size:14px;color:black;">3</text>
<rect width="20" height="30" x="3220" y="210" style="fill:yellow; stroke:black; stroke-width:2px;"></rect>
<text x="3225" y="225" style="font-size:14px;color:black;">3</text>
<rect width="20" height="30" x="3220" y="240" style="fill:yellow; stroke:black; stroke-width:2px;"></rect>
<text x="3225" y="255" style="font-size:14px;color:black;">3</text>
<rect width="20" height="30" x="3220" y="270" style="fill:yellow; stroke:black; stroke-width:2px;"></rect>
<text x="3225" y="285" style="font-size:14px;color:black;">3</text>
<rect width="20" height="30" x="3220" y="300" style="fill:yellow; stroke:black; stroke-width:2px;"></rect>
<text x="3225" y="315" style="font-size:14px;color:black;">3</text>
</svg>
