<?xml version="1.0"?>
<svg xmlns="http://www.w3.org/2000/svg" version="1.1" width="396" height="183">

    <text x="50" y="20" style="font-size:14px;color:black;">Planche 1</text>
    <rect width="123" height="123" x="50" y="30" style="fill:lightblue; stroke:black; stroke-width:2px;"/>
    <rect width="50" height="50" x="50" y="30" style="fill:yellow; stroke:black; stroke-width:2px;"/>
    <text x="70" y="55" style="font-size:14px;color:black;">2</text>
    <rect width="50" height="50" x="100" y="30" style="fill:yellow; stroke:black; stroke-width:2px;"/>
    <text x="120" y="55" style="font-size:14px;color:black;">2</text>
    <rect width="50" height="50" x="50" y="80" style="fill:yellow; stroke:black; stroke-width:2px;"/>
    <text x="70" y="105" style="font-size:14px;color:black;">2</text>
    <rect width="50" height="50" x="100" y="80" style="fill:yellow; stroke:black; stroke-width:2px;"/>
    <text x="120" y="105" style="font-size:14px;color:black;">2</text>
    <text x="223" y="20" style="font-size:14px;color:black;">Planche 2</text>
    <rect width="123" height="123" x="223" y="30" style="fill:lightblue; stroke:black; stroke-width:2px;"/>
    <rect width="50" height="50" x="223" y="30" style="fill:yellow; stroke:black; stroke-width:2px;"/>
    <text x="243" y="55" style="font-size:14px;color:black;">2</text>
    <rect width="20" height="30" x="150" y="30" style="fill:yellow; stroke:black; stroke-width:2px;"/>
    <text x="155" y="45" style="font-size:14px;color:black;">1</text>
    <rect width="20" height="30" x="150" y="80" style="fill:yellow; stroke:black; stroke-width:2px;"/>
    <text x="155" y="95" style="font-size:14px;color:black;">1</text>
    <rect width="20" height="30" x="273" y="30" style="fill:yellow; stroke:black; stroke-width:2px;"/>
    <text x="278" y="45" style="font-size:14px;color:black;">1</text>
    <rect width="20" height="30" x="293" y="30" style="fill:yellow; stroke:black; stroke-width:2px;"/>
    <text x="298" y="45" style="font-size:14px;color:black;">1</text>
    <rect width="20" height="30" x="313" y="30" style="fill:yellow; stroke:black; stroke-width:2px;"/>
    <text x="318" y="45" style="font-size:14px;color:black;">1</text>
    <rect width="20" height="30" x="223" y="80" style="fill:yellow; stroke:black; stroke-width:2px;"/>
    <text x="228" y="95" style="font-size:14px;color:black;">1</text>
    <rect width="20" height="30" x="243" y="80" style="fill:yellow; stroke:black; stroke-width:2px;"/>
    <text x="248" y="95" style="font-size:14px;color:black;">1</text>
    <rect width="20" height="30" x="263" y="80" style="fill:yellow; stroke:black; stroke-width:2px;"/>
    <text x="268" y="95" style="font-size:14px;color:black;">1</text>
    <rect width="20" height="30" x="283" y="80" style="fill:yellow; stroke:black; stroke-width:2px;"/>
    <text x="288" y="95" style="font-size:14px;color:black;">1</text>
    <rect width="20" height="30" x="303" y="80" style="fill:yellow; stroke:black; stroke-width:2px;"/>
    <text x="308" y="95" style="font-size:14px;color:black;">1</text>
    <rect width="20" height="30" x="323" y="80" style="fill:yellow; stroke:black; stroke-width:2px;"/>
    <text x="328" y="95" style="font-size:14px;color:black;">1</text>
    <rect width="20" height="30" x="223" y="110" style="fill:yellow; stroke:black; stroke-width:2px;"/>
    <text x="228" y="125" style="font-size:14px;color:black;">1</text>
    <rect width="20" height="30" x="243" y="110" style="fill:yellow; stroke:black; stroke-width:2px;"/>
    <text x="248" y="125" style="font-size:14px;color:black;">1</text>
    <rect width="20" height="30" x="263" y="110" style="fill:yellow; stroke:black; stroke-width:2px;"/>
    <text x="268" y="125" style="font-size:14px;color:black;">1</text>
    <rect width="20" height="30" x="283" y="110" style="fill:yellow; stroke:black; stroke-width:2px;"/>
    <text x="288" y="125" style="font-size:14px;color:black;">1</text>
    
</svg>
