<?xml version="1.0"?>
<svg xmlns="http://www.w3.org/2000/svg" version="1.1" width="3240" height="420">

    <text x="50" y="20" style="font-size:14px;color:black;">Planche 1</text>
    <rect width="240" height="360" x="50" y="30" style="fill:lightblue; stroke:black; stroke-width:2px;"/>
    <rect width="150" height="150" x="50" y="30" style="fill:yellow; stroke:black; stroke-width:2px;"/>
    <text x="120" y="105" style="font-size:14px;color:black;">4567</text>
    <rect width="150" height="150" x="50" y="180" style="fill:yellow; stroke:black; stroke-width:2px;"/>
    <text x="120" y="255" style="font-size:14px;color:black;">4567</text>
    <text x="340" y="20" style="font-size:14px;color:black;">Planche 2</text>
    <rect width="240" height="360" x="340" y="30" style="fill:lightblue; stroke:black; stroke-width:2px;"/>
    <rect width="150" height="150" x="340" y="30" style="fill:yellow; stroke:black; stroke-width:2px;"/>
    <text x="410" y="105" style="font-size:14px;color:black;">4567</text>
    <rect width="150" height="150" x="340" y="180" style="fill:yellow; stroke:black; stroke-width:2px;"/>
    <text x="410" y="255" style="font-size:14px;color:black;">4567</text>
    <text x="630" y="20" style="font-size:14px;color:black;">Planche 3</text>
    <rect width="240" height="360" x="630" y="30" style="fill:lightblue; stroke:black; stroke-width:2px;"/>
    <rect width="150" height="150" x="630" y="30" style="fill:yellow; stroke:black; stroke-width:2px;"/>
    <text x="700" y="105" style="font-size:14px;color:black;">4567</text>
    <rect width="150" height="150" x="630" y="180" style="fill:yellow; stroke:black; stroke-width:2px;"/>
    <text x="700" y="255" style="font-size:14px;color:black;">4567</text>
    <text x="920" y="20" style="font-size:14px;color:black;">Planche 4</text>
    <rect width="240" height="360" x="920" y="30" style="fill:lightblue; stroke:black; stroke-width:2px;"/>
    <rect width="150" height="150" x="920" y="30" style="fill:yellow; stroke:black; stroke-width:2px;"/>
    <text x="990" y="105" style="font-size:14px;color:black;">4567</text>
    <rect width="150" height="150" x="920" y="180" style="fill:yellow; stroke:black; stroke-width:2px;"/>
    <text x="990" y="255" style="font-size:14px;color:black;">4567</text>
    <text x="1210" y="20" style="font-size:14px;color:black;">Planche 5</text>
    <rect width="240" height="360" x="1210" y="30" style="fill:lightblue; stroke:black; stroke-width:2px;"/>
    <rect width="150" height="150" x="1210" y="30" style="fill:yellow; stroke:black; stroke-width:2px;"/>
    <text x="1280" y="105" style="font-size:14px;color:black;">4567</text>
    <rect width="150" height="150" x="1210" y="180" style="fill:yellow; stroke:black; stroke-width:2px;"/>
    <text x="1280" y="255" style="font-size:14px;color:black;">4567</text>
    <text x="1500" y="20" style="font-size:14px;color:black;">Planche 6</text>
    <rect width="240" height="360" x="1500" y="30" style="fill:lightblue; stroke:black; stroke-width:2px;"/>
    <rect width="150" height="150" x="1500" y="30" style="fill:yellow; stroke:black; stroke-width:2px;"/>
    <text x="1570" y="105" style="font-size:14px;color:black;">4567</text>
    <rect width="150" height="150" x="1500" y="180" style="fill:yellow; stroke:black; stroke-width:2px;"/>
    <text x="1570" y="255" style="font-size:14px;color:black;">4567</text>
    <text x="1790" y="20" style="font-size:14px;color:black;">Planche 7</text>
    <rect width="240" height="360" x="1790" y="30" style="fill:lightblue; stroke:black; stroke-width:2px;"/>
    <rect width="150" height="150" x="1790" y="30" style="fill:yellow; stroke:black; stroke-width:2px;"/>
    <text x="1860" y="105" style="font-size:14px;color:black;">4567</text>
    <rect width="150" height="150" x="1790" y="180" style="fill:yellow; stroke:black; stroke-width:2px;"/>
    <text x="1860" y="255" style="font-size:14px;color:black;">4567</text>
    <text x="2080" y="20" style="font-size:14px;color:black;">Planche 8</text>
    <rect width="240" height="360" x="2080" y="30" style="fill:lightblue; stroke:black; stroke-width:2px;"/>
    <rect width="150" height="150" x="2080" y="30" style="fill:yellow; stroke:black; stroke-width:2px;"/>
    <text x="2150" y="105" style="font-size:14px;color:black;">4567</text>
    <rect width="150" height="150" x="2080" y="180" style="fill:yellow; stroke:black; stroke-width:2px;"/>
    <text x="2150" y="255" style="font-size:14px;color:black;">4567</text>
    <text x="2370" y="20" style="font-size:14px;color:black;">Planche 9</text>
    <rect width="240" height="360" x="2370" y="30" style="fill:lightblue; stroke:black; stroke-width:2px;"/>
    <rect width="150" height="150" x="2370" y="30" style="fill:yellow; stroke:black; stroke-width:2px;"/>
    <text x="2440" y="105" style="font-size:14px;color:black;">4567</text>
    <rect width="150" height="150" x="2370" y="180" style="fill:yellow; stroke:black; stroke-width:2px;"/>
    <text x="2440" y="255" style="font-size:14px;color:black;">4567</text>
    <text x="2660" y="20" style="font-size:14px;color:black;">Planche 10</text>
    <rect width="240" height="360" x="2660" y="30" style="fill:lightblue; stroke:black; stroke-width:2px;"/>
    <rect width="150" height="150" x="2660" y="30" style="fill:yellow; stroke:black; stroke-width:2px;"/>
    <text x="2730" y="105" style="font-size:14px;color:black;">4567</text>
    <rect width="150" height="150" x="2660" y="180" style="fill:yellow; stroke:black; stroke-width:2px;"/>
    <text x="2730" y="255" style="font-size:14px;color:black;">4567</text>
    <rect width="50" height="50" x="200" y="30" style="fill:yellow; stroke:black; stroke-width:2px;"/>
    <text x="220" y="55" style="font-size:14px;color:black;">1</text>
    <rect width="50" height="50" x="200" y="180" style="fill:yellow; stroke:black; stroke-width:2px;"/>
    <text x="220" y="205" style="font-size:14px;color:black;">1</text>
    <rect width="50" height="50" x="490" y="30" style="fill:yellow; stroke:black; stroke-width:2px;"/>
    <text x="510" y="55" style="font-size:14px;color:black;">1</text>
    <rect width="50" height="50" x="490" y="180" style="fill:yellow; stroke:black; stroke-width:2px;"/>
    <text x="510" y="205" style="font-size:14px;color:black;">1</text>
    <rect width="50" height="50" x="780" y="30" style="fill:yellow; stroke:black; stroke-width:2px;"/>
    <text x="800" y="55" style="font-size:14px;color:black;">1</text>
    <rect width="50" height="50" x="2660" y="330" style="fill:yellow; stroke:black; stroke-width:2px;"/>
    <text x="2680" y="355" style="font-size:14px;color:black;">1</text>
    <rect width="20" height="30" x="250" y="30" style="fill:yellow; stroke:black; stroke-width:2px;"/>
    <text x="255" y="45" style="font-size:14px;color:black;">3</text>
    <rect width="20" height="30" x="250" y="180" style="fill:yellow; stroke:black; stroke-width:2px;"/>
    <text x="255" y="195" style="font-size:14px;color:black;">3</text>
    <rect width="20" height="30" x="540" y="30" style="fill:yellow; stroke:black; stroke-width:2px;"/>
    <text x="545" y="45" style="font-size:14px;color:black;">3</text>
    <rect width="20" height="30" x="540" y="180" style="fill:yellow; stroke:black; stroke-width:2px;"/>
    <text x="545" y="195" style="font-size:14px;color:black;">3</text>
    <rect width="20" height="30" x="830" y="30" style="fill:yellow; stroke:black; stroke-width:2px;"/>
    <text x="835" y="45" style="font-size:14px;color:black;">3</text>
    <rect width="20" height="30" x="780" y="180" style="fill:yellow; stroke:black; stroke-width:2px;"/>
    <text x="785" y="195" style="font-size:14px;color:black;">3</text>
    <rect width="20" height="30" x="800" y="180" style="fill:yellow; stroke:black; stroke-width:2px;"/>
    <text x="805" y="195" style="font-size:14px;color:black;">3</text>
    <rect width="20" height="30" x="820" y="180" style="fill:yellow; stroke:black; stroke-width:2px;"/>
    <text x="825" y="195" style="font-size:14px;color:black;">3</text>
    <rect width="20" height="30" x="840" y="180" style="fill:yellow; stroke:black; stroke-width:2px;"/>
    <text x="845" y="195" style="font-size:14px;color:black;">3</text>
    <rect width="20" height="30" x="1070" y="30" style="fill:yellow; stroke:black; stroke-width:2px;"/>
    <text x="1075" y="45" style="font-size:14px;color:black;">3</text>
    <rect width="20" height="30" x="1090" y="30" style="fill:yellow; stroke:black; stroke-width:2px;"/>
    <text x="1095" y="45" style="font-size:14px;color:black;">3</text>
    <rect width="20" height="30" x="1110" y="30" style="fill:yellow; stroke:black; stroke-width:2px;"/>
    <text x="1115" y="45" style="font-size:14px;color:black;">3</text>
    <rect width="20" height="30" x="1130" y="30" style="fill:yellow; stroke:black; stroke-width:2px;"/>
    <text x="1135" y="45" style="font-size:14px;color:black;">3</text>
    <rect width="20" height="30" x="1070" y="180" style="fill:yellow; stroke:black; stroke-width:2px;"/>
    <text x="1075" y="195" style="font-size:14px;color:black;">3</text>
    <rect width="20" height="30" x="1090" y="180" style="fill:yellow; stroke:black; stroke-width:2px;"/>
    <text x="1095" y="195" style="font-size:14px;color:black;">3</text>
    <text x="2950" y="20" style="font-size:14px;color:black;">Planche 11</text>
    <rect width="240" height="360" x="2950" y="30" style="fill:lightblue; stroke:black; stroke-width:2px;"/>
    <rect width="20" height="30" x="2950" y="30" style="fill:yellow; stroke:black; stroke-width:2px;"/>
    <text x="2955" y="45" style="font-size:14px;color:black;">3</text>
    
</svg>
