<?xml version="1.0"?>
<svg xmlns="http://www.w3.org/2000/svg" version="1.1"
><text x="30" y="20" style="font-size:14px;color:black;">Planche 1</text>
<rect width="240" height="360" x="30" y="30" style="fill:lightblue; stroke:black; stroke-width:2px;"></rect>
<rect width="50" height="50" x="30" y="30" style="fill:yellow; stroke:black; stroke-width:2px;"></rect>
<text x="50" y="55" style="font-size:14px;color:black;">1</text>
<rect width="50" height="50" x="80" y="30" style="fill:yellow; stroke:black; stroke-width:2px;"></rect>
<text x="100" y="55" style="font-size:14px;color:black;">1</text>
<rect width="50" height="50" x="130" y="30" style="fill:yellow; stroke:black; stroke-width:2px;"></rect>
<text x="150" y="55" style="font-size:14px;color:black;">1</text>
<rect width="50" height="50" x="180" y="30" style="fill:yellow; stroke:black; stroke-width:2px;"></rect>
<text x="200" y="55" style="font-size:14px;color:black;">1</text>
<rect width="50" height="50" x="30" y="80" style="fill:yellow; stroke:black; stroke-width:2px;"></rect>
<text x="50" y="105" style="font-size:14px;color:black;">1</text>
<rect width="30" height="20" x="230" y="30" style="fill:yellow; stroke:black; stroke-width:2px;"></rect>
<text x="240" y="40" style="font-size:14px;color:black;">3</text>
<rect width="30" height="20" x="80" y="80" style="fill:yellow; stroke:black; stroke-width:2px;"></rect>
<text x="90" y="90" style="font-size:14px;color:black;">3</text>
<rect width="30" height="20" x="110" y="80" style="fill:yellow; stroke:black; stroke-width:2px;"></rect>
<text x="120" y="90" style="font-size:14px;color:black;">3</text>
<rect width="30" height="20" x="140" y="80" style="fill:yellow; stroke:black; stroke-width:2px;"></rect>
<text x="150" y="90" style="font-size:14px;color:black;">3</text>
<rect width="30" height="20" x="170" y="80" style="fill:yellow; stroke:black; stroke-width:2px;"></rect>
<text x="180" y="90" style="font-size:14px;color:black;">3</text>
<rect width="30" height="20" x="200" y="80" style="fill:yellow; stroke:black; stroke-width:2px;"></rect>
<text x="210" y="90" style="font-size:14px;color:black;">3</text>
<rect width="30" height="20" x="230" y="80" style="fill:yellow; stroke:black; stroke-width:2px;"></rect>
<text x="240" y="90" style="font-size:14px;color:black;">3</text>
<rect width="30" height="20" x="30" y="130" style="fill:yellow; stroke:black; stroke-width:2px;"></rect>
<text x="40" y="140" style="font-size:14px;color:black;">3</text>
<rect width="30" height="20" x="60" y="130" style="fill:yellow; stroke:black; stroke-width:2px;"></rect>
<text x="70" y="140" style="font-size:14px;color:black;">3</text>
<rect width="30" height="20" x="90" y="130" style="fill:yellow; stroke:black; stroke-width:2px;"></rect>
<text x="100" y="140" style="font-size:14px;color:black;">3</text>
<rect width="30" height="20" x="120" y="130" style="fill:yellow; stroke:black; stroke-width:2px;"></rect>
<text x="130" y="140" style="font-size:14px;color:black;">3</text>
<rect width="30" height="20" x="150" y="130" style="fill:yellow; stroke:black; stroke-width:2px;"></rect>
<text x="160" y="140" style="font-size:14px;color:black;">3</text>
<rect width="30" height="20" x="180" y="130" style="fill:yellow; stroke:black; stroke-width:2px;"></rect>
<text x="190" y="140" style="font-size:14px;color:black;">3</text>
<rect width="30" height="20" x="210" y="130" style="fill:yellow; stroke:black; stroke-width:2px;"></rect>
<text x="220" y="140" style="font-size:14px;color:black;">3</text>
<rect width="30" height="20" x="30" y="150" style="fill:yellow; stroke:black; stroke-width:2px;"></rect>
<text x="40" y="160" style="font-size:14px;color:black;">3</text>
<rect width="20" height="50" x="30" y="170" style="fill:yellow; stroke:black; stroke-width:2px;"></rect>
<text x="35" y="195" style="font-size:14px;color:black;">2</text>
<rect width="20" height="50" x="50" y="170" style="fill:yellow; stroke:black; stroke-width:2px;"></rect>
<text x="55" y="195" style="font-size:14px;color:black;">2</text>
<rect width="20" height="50" x="70" y="170" style="fill:yellow; stroke:black; stroke-width:2px;"></rect>
<text x="75" y="195" style="font-size:14px;color:black;">2</text>
<rect width="20" height="50" x="90" y="170" style="fill:yellow; stroke:black; stroke-width:2px;"></rect>
<text x="95" y="195" style="font-size:14px;color:black;">2</text>
<rect width="20" height="50" x="110" y="170" style="fill:yellow; stroke:black; stroke-width:2px;"></rect>
<text x="115" y="195" style="font-size:14px;color:black;">2</text>
<rect width="20" height="50" x="130" y="170" style="fill:yellow; stroke:black; stroke-width:2px;"></rect>
<text x="135" y="195" style="font-size:14px;color:black;">2</text>
<rect width="20" height="50" x="150" y="170" style="fill:yellow; stroke:black; stroke-width:2px;"></rect>
<text x="155" y="195" style="font-size:14px;color:black;">2</text>
<rect width="20" height="50" x="170" y="170" style="fill:yellow; stroke:black; stroke-width:2px;"></rect>
<text x="175" y="195" style="font-size:14px;color:black;">2</text>
<rect width="20" height="50" x="190" y="170" style="fill:yellow; stroke:black; stroke-width:2px;"></rect>
<text x="195" y="195" style="font-size:14px;color:black;">2</text>
<rect width="20" height="50" x="210" y="170" style="fill:yellow; stroke:black; stroke-width:2px;"></rect>
<text x="215" y="195" style="font-size:14px;color:black;">2</text>
<rect width="20" height="50" x="230" y="170" style="fill:yellow; stroke:black; stroke-width:2px;"></rect>
<text x="235" y="195" style="font-size:14px;color:black;">2</text>
<rect width="20" height="50" x="30" y="220" style="fill:yellow; stroke:black; stroke-width:2px;"></rect>
<text x="35" y="245" style="font-size:14px;color:black;">2</text>
<rect width="20" height="50" x="50" y="220" style="fill:yellow; stroke:black; stroke-width:2px;"></rect>
<text x="55" y="245" style="font-size:14px;color:black;">2</text>
<rect width="20" height="50" x="70" y="220" style="fill:yellow; stroke:black; stroke-width:2px;"></rect>
<text x="75" y="245" style="font-size:14px;color:black;">2</text>
<rect width="20" height="50" x="90" y="220" style="fill:yellow; stroke:black; stroke-width:2px;"></rect>
<text x="95" y="245" style="font-size:14px;color:black;">2</text>
<rect width="20" height="50" x="110" y="220" style="fill:yellow; stroke:black; stroke-width:2px;"></rect>
<text x="115" y="245" style="font-size:14px;color:black;">2</text>
<rect width="20" height="50" x="130" y="220" style="fill:yellow; stroke:black; stroke-width:2px;"></rect>
<text x="135" y="245" style="font-size:14px;color:black;">2</text>
<rect width="20" height="50" x="150" y="220" style="fill:yellow; stroke:black; stroke-width:2px;"></rect>
<text x="155" y="245" style="font-size:14px;color:black;">2</text>
<rect width="20" height="50" x="170" y="220" style="fill:yellow; stroke:black; stroke-width:2px;"></rect>
<text x="175" y="245" style="font-size:14px;color:black;">2</text>
<rect width="20" height="50" x="190" y="220" style="fill:yellow; stroke:black; stroke-width:2px;"></rect>
<text x="195" y="245" style="font-size:14px;color:black;">2</text>
</svg>
