<?xml version="1.0"?>
<svg xmlns="http://www.w3.org/2000/svg" version="1.1"
><text x="30" y="20" style="font-size:14px;color:black;">Planche 1</text>
<rect width="240" height="360" x="30" y="30" style="fill:lightblue; stroke:black; stroke-width:2px;"></rect>
<rect width="50" height="50" x="30" y="30" style="fill:yellow; stroke:black; stroke-width:2px;"></rect>
<text x="50" y="55" style="font-size:14px;color:black;">1</text>
<rect width="50" height="50" x="30" y="80" style="fill:yellow; stroke:black; stroke-width:2px;"></rect>
<text x="50" y="105" style="font-size:14px;color:black;">1</text>
<rect width="50" height="50" x="30" y="130" style="fill:yellow; stroke:black; stroke-width:2px;"></rect>
<text x="50" y="155" style="font-size:14px;color:black;">1</text>
<rect width="50" height="50" x="30" y="180" style="fill:yellow; stroke:black; stroke-width:2px;"></rect>
<text x="50" y="205" style="font-size:14px;color:black;">1</text>
<rect width="50" height="50" x="30" y="230" style="fill:yellow; stroke:black; stroke-width:2px;"></rect>
<text x="50" y="255" style="font-size:14px;color:black;">1</text>
<rect width="20" height="50" x="30" y="280" style="fill:yellow; stroke:black; stroke-width:2px;"></rect>
<text x="35" y="305" style="font-size:14px;color:black;">2</text>
<rect width="20" height="50" x="30" y="330" style="fill:yellow; stroke:black; stroke-width:2px;"></rect>
<text x="35" y="355" style="font-size:14px;color:black;">2</text>
<text x="320" y="20" style="font-size:14px;color:black;">Planche 2</text>
<rect width="240" height="360" x="320" y="30" style="fill:lightblue; stroke:black; stroke-width:2px;"></rect>
<rect width="20" height="50" x="320" y="30" style="fill:yellow; stroke:black; stroke-width:2px;"></rect>
<text x="325" y="55" style="font-size:14px;color:black;">2</text>
<rect width="20" height="50" x="320" y="80" style="fill:yellow; stroke:black; stroke-width:2px;"></rect>
<text x="325" y="105" style="font-size:14px;color:black;">2</text>
<rect width="20" height="50" x="320" y="130" style="fill:yellow; stroke:black; stroke-width:2px;"></rect>
<text x="325" y="155" style="font-size:14px;color:black;">2</text>
<rect width="20" height="50" x="320" y="180" style="fill:yellow; stroke:black; stroke-width:2px;"></rect>
<text x="325" y="205" style="font-size:14px;color:black;">2</text>
<rect width="20" height="50" x="320" y="230" style="fill:yellow; stroke:black; stroke-width:2px;"></rect>
<text x="325" y="255" style="font-size:14px;color:black;">2</text>
<rect width="20" height="50" x="320" y="280" style="fill:yellow; stroke:black; stroke-width:2px;"></rect>
<text x="325" y="305" style="font-size:14px;color:black;">2</text>
<rect width="20" height="50" x="320" y="330" style="fill:yellow; stroke:black; stroke-width:2px;"></rect>
<text x="325" y="355" style="font-size:14px;color:black;">2</text>
<text x="610" y="20" style="font-size:14px;color:black;">Planche 3</text>
<rect width="240" height="360" x="610" y="30" style="fill:lightblue; stroke:black; stroke-width:2px;"></rect>
<rect width="20" height="50" x="610" y="30" style="fill:yellow; stroke:black; stroke-width:2px;"></rect>
<text x="615" y="55" style="font-size:14px;color:black;">2</text>
<rect width="20" height="50" x="610" y="80" style="fill:yellow; stroke:black; stroke-width:2px;"></rect>
<text x="615" y="105" style="font-size:14px;color:black;">2</text>
<rect width="20" height="50" x="610" y="130" style="fill:yellow; stroke:black; stroke-width:2px;"></rect>
<text x="615" y="155" style="font-size:14px;color:black;">2</text>
<rect width="20" height="50" x="610" y="180" style="fill:yellow; stroke:black; stroke-width:2px;"></rect>
<text x="615" y="205" style="font-size:14px;color:black;">2</text>
<rect width="20" height="50" x="610" y="230" style="fill:yellow; stroke:black; stroke-width:2px;"></rect>
<text x="615" y="255" style="font-size:14px;color:black;">2</text>
<rect width="20" height="50" x="610" y="280" style="fill:yellow; stroke:black; stroke-width:2px;"></rect>
<text x="615" y="305" style="font-size:14px;color:black;">2</text>
<rect width="20" height="50" x="610" y="330" style="fill:yellow; stroke:black; stroke-width:2px;"></rect>
<text x="615" y="355" style="font-size:14px;color:black;">2</text>
<text x="900" y="20" style="font-size:14px;color:black;">Planche 4</text>
<rect width="240" height="360" x="900" y="30" style="fill:lightblue; stroke:black; stroke-width:2px;"></rect>
<rect width="20" height="50" x="900" y="30" style="fill:yellow; stroke:black; stroke-width:2px;"></rect>
<text x="905" y="55" style="font-size:14px;color:black;">2</text>
<rect width="20" height="50" x="900" y="80" style="fill:yellow; stroke:black; stroke-width:2px;"></rect>
<text x="905" y="105" style="font-size:14px;color:black;">2</text>
<rect width="20" height="50" x="900" y="130" style="fill:yellow; stroke:black; stroke-width:2px;"></rect>
<text x="905" y="155" style="font-size:14px;color:black;">2</text>
<rect width="20" height="50" x="900" y="180" style="fill:yellow; stroke:black; stroke-width:2px;"></rect>
<text x="905" y="205" style="font-size:14px;color:black;">2</text>
<rect width="30" height="20" x="900" y="230" style="fill:yellow; stroke:black; stroke-width:2px;"></rect>
<text x="910" y="240" style="font-size:14px;color:black;">3</text>
<rect width="30" height="20" x="900" y="250" style="fill:yellow; stroke:black; stroke-width:2px;"></rect>
<text x="910" y="260" style="font-size:14px;color:black;">3</text>
<rect width="30" height="20" x="900" y="270" style="fill:yellow; stroke:black; stroke-width:2px;"></rect>
<text x="910" y="280" style="font-size:14px;color:black;">3</text>
<rect width="30" height="20" x="900" y="290" style="fill:yellow; stroke:black; stroke-width:2px;"></rect>
<text x="910" y="300" style="font-size:14px;color:black;">3</text>
<rect width="30" height="20" x="900" y="310" style="fill:yellow; stroke:black; stroke-width:2px;"></rect>
<text x="910" y="320" style="font-size:14px;color:black;">3</text>
<rect width="30" height="20" x="900" y="330" style="fill:yellow; stroke:black; stroke-width:2px;"></rect>
<text x="910" y="340" style="font-size:14px;color:black;">3</text>
<rect width="30" height="20" x="900" y="350" style="fill:yellow; stroke:black; stroke-width:2px;"></rect>
<text x="910" y="360" style="font-size:14px;color:black;">3</text>
<rect width="30" height="20" x="900" y="370" style="fill:yellow; stroke:black; stroke-width:2px;"></rect>
<text x="910" y="380" style="font-size:14px;color:black;">3</text>
<text x="1190" y="20" style="font-size:14px;color:black;">Planche 5</text>
<rect width="240" height="360" x="1190" y="30" style="fill:lightblue; stroke:black; stroke-width:2px;"></rect>
<rect width="30" height="20" x="1190" y="30" style="fill:yellow; stroke:black; stroke-width:2px;"></rect>
<text x="1200" y="40" style="font-size:14px;color:black;">3</text>
<rect width="30" height="20" x="1190" y="50" style="fill:yellow; stroke:black; stroke-width:2px;"></rect>
<text x="1200" y="60" style="font-size:14px;color:black;">3</text>
<rect width="30" height="20" x="1190" y="70" style="fill:yellow; stroke:black; stroke-width:2px;"></rect>
<text x="1200" y="80" style="font-size:14px;color:black;">3</text>
<rect width="30" height="20" x="1190" y="90" style="fill:yellow; stroke:black; stroke-width:2px;"></rect>
<text x="1200" y="100" style="font-size:14px;color:black;">3</text>
<rect width="30" height="20" x="1190" y="110" style="fill:yellow; stroke:black; stroke-width:2px;"></rect>
<text x="1200" y="120" style="font-size:14px;color:black;">3</text>
<rect width="30" height="20" x="1190" y="130" style="fill:yellow; stroke:black; stroke-width:2px;"></rect>
<text x="1200" y="140" style="font-size:14px;color:black;">3</text>
<rect width="30" height="20" x="1190" y="150" style="fill:yellow; stroke:black; stroke-width:2px;"></rect>
<text x="1200" y="160" style="font-size:14px;color:black;">3</text>
</svg>
