<?xml version="1.0"?><svg xmlns="http://www.w3.org/2000/svg" version="1.1"><text x="30" y="20" style="font-size:14px;">Planche 0</text><rect width="240" height="360" x="30" y="30" style="fill:lightblue; stroke:black; stroke-width:2px;"></rect><rect width="20" height="50" x="30" y="30" style="fill:yellow; stroke:black; stroke-width:2px;"></rect><text x="35" y="55" style="font-size:14px;">1</text><rect width="20" height="50" x="30" y="80" style="fill:yellow; stroke:black; stroke-width:2px;"></rect><text x="35" y="105" style="font-size:14px;">1</text><rect width="20" height="50" x="30" y="130" style="fill:yellow; stroke:black; stroke-width:2px;"></rect><text x="35" y="155" style="font-size:14px;">1</text><rect width="20" height="50" x="30" y="180" style="fill:yellow; stroke:black; stroke-width:2px;"></rect><text x="35" y="205" style="font-size:14px;">1</text><rect width="20" height="50" x="30" y="230" style="fill:yellow; stroke:black; stroke-width:2px;"></rect><text x="35" y="255" style="font-size:14px;">1</text><rect width="20" height="50" x="30" y="280" style="fill:yellow; stroke:black; stroke-width:2px;"></rect><text x="35" y="305" style="font-size:14px;">1</text><rect width="20" height="50" x="30" y="330" style="fill:yellow; stroke:black; stroke-width:2px;"></rect><text x="35" y="355" style="font-size:14px;">1</text><text x="320" y="20" style="font-size:14px;">Planche 1</text><rect width="240" height="360" x="320" y="30" style="fill:lightblue; stroke:black; stroke-width:2px;"></rect><rect width="20" height="50" x="320" y="30" style="fill:yellow; stroke:black; stroke-width:2px;"></rect><text x="325" y="55" style="font-size:14px;">2</text><rect width="20" height="50" x="320" y="80" style="fill:yellow; stroke:black; stroke-width:2px;"></rect><text x="325" y="105" style="font-size:14px;">2</text><rect width="20" height="50" x="320" y="130" style="fill:yellow; stroke:black; stroke-width:2px;"></rect><text x="325" y="155" style="font-size:14px;">2</text><rect width="50" height="50" x="30" y="30" style="fill:yellow; stroke:black; stroke-width:2px;"></rect><text x="50" y="55" style="font-size:14px;">1</text><rect width="50" height="50" x="30" y="80" style="fill:yellow; stroke:black; stroke-width:2px;"></rect><text x="50" y="105" style="font-size:14px;">1</text><rect width="50" height="50" x="30" y="130" style="fill:yellow; stroke:black; stroke-width:2px;"></rect><text x="50" y="155" style="font-size:14px;">1</text><rect width="50" height="50" x="30" y="180" style="fill:yellow; stroke:black; stroke-width:2px;"></rect><text x="50" y="205" style="font-size:14px;">1</text><rect width="50" height="50" x="30" y="230" style="fill:yellow; stroke:black; stroke-width:2px;"></rect><text x="50" y="255" style="font-size:14px;">1</text><rect width="30" height="20" x="30" y="30" style="fill:yellow; stroke:black; stroke-width:2px;"></rect><text x="40" y="40" style="font-size:14px;">1</text><rect width="30" height="20" x="30" y="50" style="fill:yellow; stroke:black; stroke-width:2px;"></rect><text x="40" y="60" style="font-size:14px;">1</text><rect width="30" height="20" x="30" y="70" style="fill:yellow; stroke:black; stroke-width:2px;"></rect><text x="40" y="80" style="font-size:14px;">1</text><rect width="30" height="20" x="30" y="90" style="fill:yellow; stroke:black; stroke-width:2px;"></rect><text x="40" y="100" style="font-size:14px;">1</text><rect width="30" height="20" x="30" y="110" style="fill:yellow; stroke:black; stroke-width:2px;"></rect><text x="40" y="120" style="font-size:14px;">1</text><rect width="30" height="20" x="30" y="130" style="fill:yellow; stroke:black; stroke-width:2px;"></rect><text x="40" y="140" style="font-size:14px;">1</text><rect width="30" height="20" x="30" y="150" style="fill:yellow; stroke:black; stroke-width:2px;"></rect><text x="40" y="160" style="font-size:14px;">1</text><rect width="30" height="20" x="30" y="170" style="fill:yellow; stroke:black; stroke-width:2px;"></rect><text x="40" y="180" style="font-size:14px;">1</text><rect width="30" height="20" x="30" y="190" style="fill:yellow; stroke:black; stroke-width:2px;"></rect><text x="40" y="200" style="font-size:14px;">1</text><rect width="30" height="20" x="30" y="210" style="fill:yellow; stroke:black; stroke-width:2px;"></rect><text x="40" y="220" style="font-size:14px;">1</text><rect width="30" height="20" x="30" y="230" style="fill:yellow; stroke:black; stroke-width:2px;"></rect><text x="40" y="240" style="font-size:14px;">1</text><rect width="30" height="20" x="30" y="250" style="fill:yellow; stroke:black; stroke-width:2px;"></rect><text x="40" y="260" style="font-size:14px;">1</text><rect width="30" height="20" x="30" y="270" style="fill:yellow; stroke:black; stroke-width:2px;"></rect><text x="40" y="280" style="font-size:14px;">1</text><rect width="30" height="20" x="30" y="290" style="fill:yellow; stroke:black; stroke-width:2px;"></rect><text x="40" y="300" style="font-size:14px;">1</text><rect width="30" height="20" x="30" y="310" style="fill:yellow; stroke:black; stroke-width:2px;"></rect><text x="40" y="320" style="font-size:14px;">1</text></svg>